ISO-10303-21;
HEADER;
/* Generated by software containing ST-Developer
 * from STEP Tools, Inc. (www.steptools.com) 
 */

FILE_DESCRIPTION(
/* description */ (''),
/* implementation_level */ '2;1');

FILE_NAME(
/* name */ 'AIO plate sheet metal.step',
/* time_stamp */ '2026-03-10T15:58:17-04:00',
/* author */ (''),
/* organization */ (''),
/* preprocessor_version */ 'ST-DEVELOPER v20.1',
/* originating_system */ 'Autodesk Translation Framework v14.24.0.0',
/* authorisation */ '');

FILE_SCHEMA (('AUTOMOTIVE_DESIGN { 1 0 10303 214 3 1 1 }'));
ENDSEC;

DATA;
#10=MECHANICAL_DESIGN_GEOMETRIC_PRESENTATION_REPRESENTATION('',(#13),#1839);
#11=SHAPE_REPRESENTATION_RELATIONSHIP('SRR','None',#1846,#12);
#12=ADVANCED_BREP_SHAPE_REPRESENTATION('',(#14),#1838);
#13=STYLED_ITEM('',(#1855),#14);
#14=MANIFOLD_SOLID_BREP('Body1',#915);
#15=B_SPLINE_SURFACE_WITH_KNOTS('',3,3,((#1531,#1532,#1533,#1534),(#1535,
#1536,#1537,#1538),(#1539,#1540,#1541,#1542),(#1543,#1544,#1545,#1546),
(#1547,#1548,#1549,#1550),(#1551,#1552,#1553,#1554),(#1555,#1556,#1557,
#1558),(#1559,#1560,#1561,#1562),(#1563,#1564,#1565,#1566),(#1567,#1568,
#1569,#1570)),.UNSPECIFIED.,.F.,.F.,.F.,(4,1,1,1,1,1,1,4),(4,4),(0.,0.142857142857143,
0.285714285714286,0.428571428571429,0.571428571428571,0.714285714285714,
0.857142857142857,1.),(0.,0.1016),.UNSPECIFIED.);
#16=B_SPLINE_SURFACE_WITH_KNOTS('',3,3,((#1630,#1631,#1632,#1633),(#1634,
#1635,#1636,#1637),(#1638,#1639,#1640,#1641),(#1642,#1643,#1644,#1645),
(#1646,#1647,#1648,#1649),(#1650,#1651,#1652,#1653),(#1654,#1655,#1656,
#1657),(#1658,#1659,#1660,#1661),(#1662,#1663,#1664,#1665),(#1666,#1667,
#1668,#1669)),.UNSPECIFIED.,.F.,.F.,.F.,(4,1,1,1,1,1,1,4),(4,4),(0.,0.142857142857143,
0.285714285714286,0.428571428571429,0.571428571428571,0.714285714285714,
0.857142857142857,1.),(0.,0.1016),.UNSPECIFIED.);
#17=B_SPLINE_SURFACE_WITH_KNOTS('',3,3,((#1670,#1671,#1672,#1673),(#1674,
#1675,#1676,#1677),(#1678,#1679,#1680,#1681),(#1682,#1683,#1684,#1685),
(#1686,#1687,#1688,#1689),(#1690,#1691,#1692,#1693),(#1694,#1695,#1696,
#1697),(#1698,#1699,#1700,#1701),(#1702,#1703,#1704,#1705),(#1706,#1707,
#1708,#1709)),.UNSPECIFIED.,.F.,.F.,.F.,(4,1,1,1,1,1,1,4),(4,4),(0.,0.142857142857143,
0.285714285714286,0.428571428571429,0.571428571428571,0.714285714285714,
0.857142857142857,1.),(0.,0.1016),.UNSPECIFIED.);
#18=B_SPLINE_SURFACE_WITH_KNOTS('',3,3,((#1713,#1714,#1715,#1716),(#1717,
#1718,#1719,#1720),(#1721,#1722,#1723,#1724),(#1725,#1726,#1727,#1728),
(#1729,#1730,#1731,#1732),(#1733,#1734,#1735,#1736),(#1737,#1738,#1739,
#1740),(#1741,#1742,#1743,#1744),(#1745,#1746,#1747,#1748),(#1749,#1750,
#1751,#1752)),.UNSPECIFIED.,.F.,.F.,.F.,(4,1,1,1,1,1,1,4),(4,4),(0.,0.142857142857143,
0.285714285714286,0.428571428571429,0.571428571428571,0.714285714285714,
0.857142857142857,1.),(0.,0.1016),.UNSPECIFIED.);
#19=CYLINDRICAL_SURFACE('',#935,2.032);
#20=CYLINDRICAL_SURFACE('',#949,1.016);
#21=CYLINDRICAL_SURFACE('',#957,2.032);
#22=CYLINDRICAL_SURFACE('',#965,1.016);
#23=CYLINDRICAL_SURFACE('',#972,3.);
#24=CYLINDRICAL_SURFACE('',#974,3.);
#25=CYLINDRICAL_SURFACE('',#976,3.);
#26=CYLINDRICAL_SURFACE('',#978,3.);
#27=CYLINDRICAL_SURFACE('',#981,3.00000000000001);
#28=CYLINDRICAL_SURFACE('',#984,3.);
#29=CYLINDRICAL_SURFACE('',#987,3.);
#30=CYLINDRICAL_SURFACE('',#990,3.00000000000001);
#31=CYLINDRICAL_SURFACE('',#992,3.);
#32=CYLINDRICAL_SURFACE('',#995,3.00000000000001);
#33=CYLINDRICAL_SURFACE('',#999,3.00000000000001);
#34=CYLINDRICAL_SURFACE('',#1002,3.);
#35=FACE_BOUND('',#128,.T.);
#36=FACE_BOUND('',#134,.T.);
#37=FACE_BOUND('',#135,.T.);
#38=FACE_BOUND('',#136,.T.);
#39=FACE_BOUND('',#140,.T.);
#40=FACE_BOUND('',#146,.T.);
#41=FACE_BOUND('',#151,.T.);
#42=FACE_BOUND('',#184,.T.);
#43=FACE_BOUND('',#185,.T.);
#44=FACE_BOUND('',#186,.T.);
#45=CIRCLE('',#930,3.);
#46=CIRCLE('',#931,3.);
#47=CIRCLE('',#933,2.032);
#48=CIRCLE('',#934,1.01600000000001);
#49=CIRCLE('',#936,2.03199999999999);
#50=CIRCLE('',#940,3.00000000000001);
#51=CIRCLE('',#941,3.);
#52=CIRCLE('',#942,3.);
#53=CIRCLE('',#943,3.00000000000001);
#54=CIRCLE('',#944,3.);
#55=CIRCLE('',#945,3.00000000000001);
#56=CIRCLE('',#946,3.);
#57=CIRCLE('',#947,3.00000000000001);
#58=CIRCLE('',#950,1.016);
#59=CIRCLE('',#952,3.);
#60=CIRCLE('',#953,3.);
#61=CIRCLE('',#955,2.032);
#62=CIRCLE('',#956,1.016);
#63=CIRCLE('',#958,2.032);
#64=CIRCLE('',#962,3.);
#65=CIRCLE('',#963,3.);
#66=CIRCLE('',#966,1.016);
#67=CIRCLE('',#968,3.);
#68=CIRCLE('',#969,3.);
#69=CIRCLE('',#982,3.00000000000001);
#70=CIRCLE('',#985,3.);
#71=CIRCLE('',#988,3.);
#72=CIRCLE('',#991,3.00000000000001);
#73=CIRCLE('',#993,3.);
#74=CIRCLE('',#996,3.00000000000001);
#75=CIRCLE('',#1000,3.00000000000001);
#76=CIRCLE('',#1003,3.);
#77=FACE_OUTER_BOUND('',#127,.T.);
#78=FACE_OUTER_BOUND('',#129,.T.);
#79=FACE_OUTER_BOUND('',#130,.T.);
#80=FACE_OUTER_BOUND('',#131,.T.);
#81=FACE_OUTER_BOUND('',#132,.T.);
#82=FACE_OUTER_BOUND('',#133,.T.);
#83=FACE_OUTER_BOUND('',#137,.T.);
#84=FACE_OUTER_BOUND('',#138,.T.);
#85=FACE_OUTER_BOUND('',#139,.T.);
#86=FACE_OUTER_BOUND('',#141,.T.);
#87=FACE_OUTER_BOUND('',#142,.T.);
#88=FACE_OUTER_BOUND('',#143,.T.);
#89=FACE_OUTER_BOUND('',#144,.T.);
#90=FACE_OUTER_BOUND('',#145,.T.);
#91=FACE_OUTER_BOUND('',#147,.T.);
#92=FACE_OUTER_BOUND('',#148,.T.);
#93=FACE_OUTER_BOUND('',#149,.T.);
#94=FACE_OUTER_BOUND('',#150,.T.);
#95=FACE_OUTER_BOUND('',#152,.T.);
#96=FACE_OUTER_BOUND('',#153,.T.);
#97=FACE_OUTER_BOUND('',#154,.T.);
#98=FACE_OUTER_BOUND('',#155,.T.);
#99=FACE_OUTER_BOUND('',#156,.T.);
#100=FACE_OUTER_BOUND('',#157,.T.);
#101=FACE_OUTER_BOUND('',#158,.T.);
#102=FACE_OUTER_BOUND('',#159,.T.);
#103=FACE_OUTER_BOUND('',#160,.T.);
#104=FACE_OUTER_BOUND('',#161,.T.);
#105=FACE_OUTER_BOUND('',#162,.T.);
#106=FACE_OUTER_BOUND('',#163,.T.);
#107=FACE_OUTER_BOUND('',#164,.T.);
#108=FACE_OUTER_BOUND('',#165,.T.);
#109=FACE_OUTER_BOUND('',#166,.T.);
#110=FACE_OUTER_BOUND('',#167,.T.);
#111=FACE_OUTER_BOUND('',#168,.T.);
#112=FACE_OUTER_BOUND('',#169,.T.);
#113=FACE_OUTER_BOUND('',#170,.T.);
#114=FACE_OUTER_BOUND('',#171,.T.);
#115=FACE_OUTER_BOUND('',#172,.T.);
#116=FACE_OUTER_BOUND('',#173,.T.);
#117=FACE_OUTER_BOUND('',#174,.T.);
#118=FACE_OUTER_BOUND('',#175,.T.);
#119=FACE_OUTER_BOUND('',#176,.T.);
#120=FACE_OUTER_BOUND('',#177,.T.);
#121=FACE_OUTER_BOUND('',#178,.T.);
#122=FACE_OUTER_BOUND('',#179,.T.);
#123=FACE_OUTER_BOUND('',#180,.T.);
#124=FACE_OUTER_BOUND('',#181,.T.);
#125=FACE_OUTER_BOUND('',#182,.T.);
#126=FACE_OUTER_BOUND('',#183,.T.);
#127=EDGE_LOOP('',(#579,#580,#581,#582,#583,#584));
#128=EDGE_LOOP('',(#585,#586,#587,#588));
#129=EDGE_LOOP('',(#589,#590,#591,#592));
#130=EDGE_LOOP('',(#593,#594,#595,#596));
#131=EDGE_LOOP('',(#597,#598,#599,#600));
#132=EDGE_LOOP('',(#601,#602,#603,#604));
#133=EDGE_LOOP('',(#605,#606,#607,#608));
#134=EDGE_LOOP('',(#609,#610,#611,#612,#613,#614,#615,#616));
#135=EDGE_LOOP('',(#617,#618,#619,#620));
#136=EDGE_LOOP('',(#621,#622,#623,#624));
#137=EDGE_LOOP('',(#625,#626,#627,#628));
#138=EDGE_LOOP('',(#629,#630,#631,#632));
#139=EDGE_LOOP('',(#633,#634,#635,#636,#637,#638));
#140=EDGE_LOOP('',(#639,#640,#641,#642));
#141=EDGE_LOOP('',(#643,#644,#645,#646));
#142=EDGE_LOOP('',(#647,#648,#649,#650));
#143=EDGE_LOOP('',(#651,#652,#653,#654));
#144=EDGE_LOOP('',(#655,#656,#657,#658));
#145=EDGE_LOOP('',(#659,#660,#661,#662,#663,#664));
#146=EDGE_LOOP('',(#665,#666,#667,#668));
#147=EDGE_LOOP('',(#669,#670,#671,#672));
#148=EDGE_LOOP('',(#673,#674,#675,#676));
#149=EDGE_LOOP('',(#677,#678,#679,#680));
#150=EDGE_LOOP('',(#681,#682,#683,#684,#685,#686));
#151=EDGE_LOOP('',(#687,#688,#689,#690));
#152=EDGE_LOOP('',(#691,#692,#693,#694));
#153=EDGE_LOOP('',(#695,#696,#697,#698));
#154=EDGE_LOOP('',(#699,#700,#701,#702));
#155=EDGE_LOOP('',(#703,#704,#705,#706));
#156=EDGE_LOOP('',(#707,#708,#709,#710));
#157=EDGE_LOOP('',(#711,#712,#713,#714));
#158=EDGE_LOOP('',(#715,#716,#717,#718));
#159=EDGE_LOOP('',(#719,#720,#721,#722));
#160=EDGE_LOOP('',(#723,#724,#725,#726));
#161=EDGE_LOOP('',(#727,#728,#729,#730));
#162=EDGE_LOOP('',(#731,#732,#733,#734));
#163=EDGE_LOOP('',(#735,#736,#737,#738));
#164=EDGE_LOOP('',(#739,#740,#741,#742));
#165=EDGE_LOOP('',(#743,#744,#745,#746));
#166=EDGE_LOOP('',(#747,#748,#749,#750));
#167=EDGE_LOOP('',(#751,#752,#753,#754));
#168=EDGE_LOOP('',(#755,#756,#757,#758));
#169=EDGE_LOOP('',(#759,#760,#761,#762));
#170=EDGE_LOOP('',(#763,#764,#765,#766));
#171=EDGE_LOOP('',(#767,#768,#769,#770));
#172=EDGE_LOOP('',(#771,#772,#773,#774));
#173=EDGE_LOOP('',(#775,#776,#777,#778));
#174=EDGE_LOOP('',(#779,#780,#781,#782));
#175=EDGE_LOOP('',(#783,#784,#785,#786));
#176=EDGE_LOOP('',(#787,#788,#789,#790));
#177=EDGE_LOOP('',(#791,#792,#793,#794));
#178=EDGE_LOOP('',(#795,#796,#797,#798));
#179=EDGE_LOOP('',(#799,#800,#801,#802));
#180=EDGE_LOOP('',(#803,#804,#805,#806));
#181=EDGE_LOOP('',(#807,#808,#809,#810));
#182=EDGE_LOOP('',(#811,#812,#813,#814));
#183=EDGE_LOOP('',(#815,#816,#817,#818));
#184=EDGE_LOOP('',(#819,#820,#821,#822,#823,#824,#825,#826));
#185=EDGE_LOOP('',(#827,#828,#829,#830));
#186=EDGE_LOOP('',(#831,#832,#833,#834));
#187=B_SPLINE_CURVE_WITH_KNOTS('',3,(#1261,#1262,#1263,#1264,#1265,#1266,
#1267,#1268,#1269,#1270,#1271,#1272,#1273,#1274,#1275,#1276,#1277,#1278,
#1279,#1280,#1281,#1282),.UNSPECIFIED.,.F.,.F.,(4,3,3,3,3,3,3,4),(0.,0.0971383117259558,
0.194276623451912,0.291414935177867,0.388553246903823,0.485691558629779,
0.582829870355735,0.679968182081691),.UNSPECIFIED.);
#188=B_SPLINE_CURVE_WITH_KNOTS('',3,(#1286,#1287,#1288,#1289,#1290,#1291,
#1292,#1293,#1294,#1295,#1296,#1297,#1298,#1299,#1300,#1301,#1302,#1303,
#1304,#1305,#1306,#1307),.UNSPECIFIED.,.F.,.F.,(4,3,3,3,3,3,3,4),(0.,0.0971383117258585,
0.194276623451717,0.291414935177575,0.388553246903434,0.485691558629292,
0.582829870355151,0.679968182081009),.UNSPECIFIED.);
#189=B_SPLINE_CURVE_WITH_KNOTS('',3,(#1394,#1395,#1396,#1397,#1398,#1399,
#1400,#1401,#1402,#1403,#1404,#1405,#1406,#1407,#1408,#1409,#1410,#1411,
#1412,#1413,#1414,#1415),.UNSPECIFIED.,.F.,.F.,(4,3,3,3,3,3,3,4),(0.,0.0971383117259407,
0.194276623451881,0.291414935177822,0.388553246903763,0.485691558629704,
0.582829870355644,0.679968182081585),.UNSPECIFIED.);
#190=B_SPLINE_CURVE_WITH_KNOTS('',3,(#1419,#1420,#1421,#1422,#1423,#1424,
#1425,#1426,#1427,#1428,#1429,#1430,#1431,#1432,#1433,#1434,#1435,#1436,
#1437,#1438,#1439,#1440),.UNSPECIFIED.,.F.,.F.,(4,3,3,3,3,3,3,4),(0.,0.0971383117259013,
0.194276623451803,0.291414935177704,0.388553246903605,0.485691558629507,
0.582829870355408,0.679968182081309),.UNSPECIFIED.);
#191=B_SPLINE_CURVE_WITH_KNOTS('',3,(#1470,#1471,#1472,#1473,#1474,#1475,
#1476,#1477,#1478,#1479,#1480,#1481,#1482,#1483,#1484,#1485,#1486,#1487,
#1488,#1489,#1490,#1491),.UNSPECIFIED.,.F.,.F.,(4,3,3,3,3,3,3,4),(0.,0.0971383117261493,
0.194276623452299,0.291414935178448,0.388553246904597,0.485691558630746,
0.582829870356896,0.679968182083045),.UNSPECIFIED.);
#192=B_SPLINE_CURVE_WITH_KNOTS('',3,(#1494,#1495,#1496,#1497,#1498,#1499,
#1500,#1501,#1502,#1503,#1504,#1505,#1506,#1507,#1508,#1509,#1510,#1511,
#1512,#1513,#1514,#1515),.UNSPECIFIED.,.F.,.F.,(4,3,3,3,3,3,3,4),(0.,0.0971383117263551,
0.19427662345271,0.291414935179065,0.38855324690542,0.485691558631776,0.582829870358131,
0.679968182084486),.UNSPECIFIED.);
#193=B_SPLINE_CURVE_WITH_KNOTS('',3,(#1573,#1574,#1575,#1576,#1577,#1578,
#1579,#1580,#1581,#1582,#1583,#1584,#1585,#1586,#1587,#1588,#1589,#1590,
#1591,#1592,#1593,#1594),.UNSPECIFIED.,.F.,.F.,(4,3,3,3,3,3,3,4),(0.,0.097138311726021,
0.194276623452042,0.291414935178063,0.388553246904084,0.485691558630105,
0.582829870356126,0.679968182082147),.UNSPECIFIED.);
#194=B_SPLINE_CURVE_WITH_KNOTS('',3,(#1598,#1599,#1600,#1601,#1602,#1603,
#1604,#1605,#1606,#1607,#1608,#1609,#1610,#1611,#1612,#1613,#1614,#1615,
#1616,#1617,#1618,#1619),.UNSPECIFIED.,.F.,.F.,(4,3,3,3,3,3,3,4),(0.,0.0971383117259452,
0.19427662345189,0.291414935177836,0.388553246903781,0.485691558629726,
0.582829870355671,0.679968182081616),.UNSPECIFIED.);
#195=LINE('',#1257,#283);
#196=LINE('',#1259,#284);
#197=LINE('',#1284,#285);
#198=LINE('',#1308,#286);
#199=LINE('',#1313,#287);
#200=LINE('',#1316,#288);
#201=LINE('',#1319,#289);
#202=LINE('',#1323,#290);
#203=LINE('',#1327,#291);
#204=LINE('',#1330,#292);
#205=LINE('',#1332,#293);
#206=LINE('',#1334,#294);
#207=LINE('',#1335,#295);
#208=LINE('',#1338,#296);
#209=LINE('',#1339,#297);
#210=LINE('',#1342,#298);
#211=LINE('',#1344,#299);
#212=LINE('',#1345,#300);
#213=LINE('',#1348,#301);
#214=LINE('',#1352,#302);
#215=LINE('',#1356,#303);
#216=LINE('',#1360,#304);
#217=LINE('',#1366,#305);
#218=LINE('',#1369,#306);
#219=LINE('',#1372,#307);
#220=LINE('',#1376,#308);
#221=LINE('',#1380,#309);
#222=LINE('',#1382,#310);
#223=LINE('',#1383,#311);
#224=LINE('',#1385,#312);
#225=LINE('',#1390,#313);
#226=LINE('',#1392,#314);
#227=LINE('',#1417,#315);
#228=LINE('',#1441,#316);
#229=LINE('',#1446,#317);
#230=LINE('',#1449,#318);
#231=LINE('',#1452,#319);
#232=LINE('',#1457,#320);
#233=LINE('',#1460,#321);
#234=LINE('',#1462,#322);
#235=LINE('',#1463,#323);
#236=LINE('',#1466,#324);
#237=LINE('',#1467,#325);
#238=LINE('',#1493,#326);
#239=LINE('',#1520,#327);
#240=LINE('',#1523,#328);
#241=LINE('',#1526,#329);
#242=LINE('',#1527,#330);
#243=LINE('',#1529,#331);
#244=LINE('',#1572,#332);
#245=LINE('',#1597,#333);
#246=LINE('',#1624,#334);
#247=LINE('',#1627,#335);
#248=LINE('',#1629,#336);
#249=LINE('',#1710,#337);
#250=LINE('',#1712,#338);
#251=LINE('',#1754,#339);
#252=LINE('',#1755,#340);
#253=LINE('',#1757,#341);
#254=LINE('',#1759,#342);
#255=LINE('',#1762,#343);
#256=LINE('',#1763,#344);
#257=LINE('',#1765,#345);
#258=LINE('',#1767,#346);
#259=LINE('',#1771,#347);
#260=LINE('',#1773,#348);
#261=LINE('',#1774,#349);
#262=LINE('',#1778,#350);
#263=LINE('',#1781,#351);
#264=LINE('',#1782,#352);
#265=LINE('',#1786,#353);
#266=LINE('',#1789,#354);
#267=LINE('',#1790,#355);
#268=LINE('',#1794,#356);
#269=LINE('',#1797,#357);
#270=LINE('',#1798,#358);
#271=LINE('',#1803,#359);
#272=LINE('',#1806,#360);
#273=LINE('',#1809,#361);
#274=LINE('',#1810,#362);
#275=LINE('',#1814,#363);
#276=LINE('',#1816,#364);
#277=LINE('',#1819,#365);
#278=LINE('',#1821,#366);
#279=LINE('',#1822,#367);
#280=LINE('',#1826,#368);
#281=LINE('',#1829,#369);
#282=LINE('',#1830,#370);
#283=VECTOR('',#1011,10.);
#284=VECTOR('',#1012,10.);
#285=VECTOR('',#1013,10.);
#286=VECTOR('',#1014,10.);
#287=VECTOR('',#1017,10.);
#288=VECTOR('',#1020,10.);
#289=VECTOR('',#1023,10.);
#290=VECTOR('',#1026,10.);
#291=VECTOR('',#1031,10.);
#292=VECTOR('',#1034,10.);
#293=VECTOR('',#1037,10.);
#294=VECTOR('',#1038,10.);
#295=VECTOR('',#1039,10.);
#296=VECTOR('',#1042,10.);
#297=VECTOR('',#1043,10.);
#298=VECTOR('',#1046,10.);
#299=VECTOR('',#1047,10.);
#300=VECTOR('',#1048,10.);
#301=VECTOR('',#1049,10.);
#302=VECTOR('',#1052,10.);
#303=VECTOR('',#1055,10.);
#304=VECTOR('',#1058,10.);
#305=VECTOR('',#1063,10.);
#306=VECTOR('',#1066,10.);
#307=VECTOR('',#1067,10.);
#308=VECTOR('',#1070,10.);
#309=VECTOR('',#1075,10.);
#310=VECTOR('',#1076,10.);
#311=VECTOR('',#1077,10.);
#312=VECTOR('',#1080,10.);
#313=VECTOR('',#1085,10.);
#314=VECTOR('',#1086,10.);
#315=VECTOR('',#1087,10.);
#316=VECTOR('',#1088,10.);
#317=VECTOR('',#1091,10.);
#318=VECTOR('',#1094,10.);
#319=VECTOR('',#1097,10.);
#320=VECTOR('',#1104,10.);
#321=VECTOR('',#1109,10.);
#322=VECTOR('',#1110,10.);
#323=VECTOR('',#1111,10.);
#324=VECTOR('',#1114,10.);
#325=VECTOR('',#1115,10.);
#326=VECTOR('',#1118,10.);
#327=VECTOR('',#1121,10.);
#328=VECTOR('',#1124,10.);
#329=VECTOR('',#1127,10.);
#330=VECTOR('',#1128,10.);
#331=VECTOR('',#1131,10.);
#332=VECTOR('',#1134,10.);
#333=VECTOR('',#1137,10.);
#334=VECTOR('',#1140,10.);
#335=VECTOR('',#1143,10.);
#336=VECTOR('',#1146,10.);
#337=VECTOR('',#1147,10.);
#338=VECTOR('',#1150,10.);
#339=VECTOR('',#1153,10.);
#340=VECTOR('',#1154,10.);
#341=VECTOR('',#1157,10.);
#342=VECTOR('',#1160,10.);
#343=VECTOR('',#1165,10.);
#344=VECTOR('',#1166,10.);
#345=VECTOR('',#1169,10.);
#346=VECTOR('',#1172,10.);
#347=VECTOR('',#1177,10.);
#348=VECTOR('',#1178,10.);
#349=VECTOR('',#1179,10.);
#350=VECTOR('',#1184,10.);
#351=VECTOR('',#1187,10.);
#352=VECTOR('',#1188,10.);
#353=VECTOR('',#1193,10.);
#354=VECTOR('',#1196,10.);
#355=VECTOR('',#1197,10.);
#356=VECTOR('',#1202,10.);
#357=VECTOR('',#1205,10.);
#358=VECTOR('',#1206,10.);
#359=VECTOR('',#1213,10.);
#360=VECTOR('',#1216,10.);
#361=VECTOR('',#1219,10.);
#362=VECTOR('',#1220,10.);
#363=VECTOR('',#1225,10.);
#364=VECTOR('',#1228,10.);
#365=VECTOR('',#1231,10.);
#366=VECTOR('',#1232,10.);
#367=VECTOR('',#1233,10.);
#368=VECTOR('',#1238,10.);
#369=VECTOR('',#1241,10.);
#370=VECTOR('',#1242,10.);
#371=VERTEX_POINT('',#1255);
#372=VERTEX_POINT('',#1256);
#373=VERTEX_POINT('',#1258);
#374=VERTEX_POINT('',#1260);
#375=VERTEX_POINT('',#1283);
#376=VERTEX_POINT('',#1285);
#377=VERTEX_POINT('',#1309);
#378=VERTEX_POINT('',#1310);
#379=VERTEX_POINT('',#1312);
#380=VERTEX_POINT('',#1314);
#381=VERTEX_POINT('',#1318);
#382=VERTEX_POINT('',#1320);
#383=VERTEX_POINT('',#1322);
#384=VERTEX_POINT('',#1326);
#385=VERTEX_POINT('',#1328);
#386=VERTEX_POINT('',#1333);
#387=VERTEX_POINT('',#1337);
#388=VERTEX_POINT('',#1341);
#389=VERTEX_POINT('',#1343);
#390=VERTEX_POINT('',#1346);
#391=VERTEX_POINT('',#1347);
#392=VERTEX_POINT('',#1349);
#393=VERTEX_POINT('',#1351);
#394=VERTEX_POINT('',#1353);
#395=VERTEX_POINT('',#1355);
#396=VERTEX_POINT('',#1357);
#397=VERTEX_POINT('',#1359);
#398=VERTEX_POINT('',#1362);
#399=VERTEX_POINT('',#1363);
#400=VERTEX_POINT('',#1365);
#401=VERTEX_POINT('',#1367);
#402=VERTEX_POINT('',#1370);
#403=VERTEX_POINT('',#1371);
#404=VERTEX_POINT('',#1373);
#405=VERTEX_POINT('',#1375);
#406=VERTEX_POINT('',#1379);
#407=VERTEX_POINT('',#1381);
#408=VERTEX_POINT('',#1388);
#409=VERTEX_POINT('',#1389);
#410=VERTEX_POINT('',#1391);
#411=VERTEX_POINT('',#1393);
#412=VERTEX_POINT('',#1416);
#413=VERTEX_POINT('',#1418);
#414=VERTEX_POINT('',#1442);
#415=VERTEX_POINT('',#1443);
#416=VERTEX_POINT('',#1445);
#417=VERTEX_POINT('',#1447);
#418=VERTEX_POINT('',#1451);
#419=VERTEX_POINT('',#1456);
#420=VERTEX_POINT('',#1461);
#421=VERTEX_POINT('',#1465);
#422=VERTEX_POINT('',#1469);
#423=VERTEX_POINT('',#1492);
#424=VERTEX_POINT('',#1516);
#425=VERTEX_POINT('',#1517);
#426=VERTEX_POINT('',#1519);
#427=VERTEX_POINT('',#1521);
#428=VERTEX_POINT('',#1525);
#429=VERTEX_POINT('',#1571);
#430=VERTEX_POINT('',#1596);
#431=VERTEX_POINT('',#1620);
#432=VERTEX_POINT('',#1621);
#433=VERTEX_POINT('',#1623);
#434=VERTEX_POINT('',#1625);
#435=VERTEX_POINT('',#1770);
#436=VERTEX_POINT('',#1772);
#437=VERTEX_POINT('',#1776);
#438=VERTEX_POINT('',#1780);
#439=VERTEX_POINT('',#1784);
#440=VERTEX_POINT('',#1788);
#441=VERTEX_POINT('',#1792);
#442=VERTEX_POINT('',#1796);
#443=VERTEX_POINT('',#1802);
#444=VERTEX_POINT('',#1804);
#445=VERTEX_POINT('',#1808);
#446=VERTEX_POINT('',#1812);
#447=VERTEX_POINT('',#1818);
#448=VERTEX_POINT('',#1820);
#449=VERTEX_POINT('',#1824);
#450=VERTEX_POINT('',#1828);
#451=EDGE_CURVE('',#371,#372,#195,.T.);
#452=EDGE_CURVE('',#372,#373,#196,.T.);
#453=EDGE_CURVE('',#374,#373,#187,.T.);
#454=EDGE_CURVE('',#374,#375,#197,.T.);
#455=EDGE_CURVE('',#376,#375,#188,.T.);
#456=EDGE_CURVE('',#376,#371,#198,.T.);
#457=EDGE_CURVE('',#377,#378,#45,.T.);
#458=EDGE_CURVE('',#378,#379,#199,.T.);
#459=EDGE_CURVE('',#379,#380,#46,.T.);
#460=EDGE_CURVE('',#380,#377,#200,.T.);
#461=EDGE_CURVE('',#381,#371,#201,.T.);
#462=EDGE_CURVE('',#382,#381,#47,.T.);
#463=EDGE_CURVE('',#382,#383,#202,.T.);
#464=EDGE_CURVE('',#371,#383,#48,.T.);
#465=EDGE_CURVE('',#384,#381,#203,.T.);
#466=EDGE_CURVE('',#384,#385,#49,.T.);
#467=EDGE_CURVE('',#385,#382,#204,.T.);
#468=EDGE_CURVE('',#372,#384,#205,.T.);
#469=EDGE_CURVE('',#386,#384,#206,.T.);
#470=EDGE_CURVE('',#373,#386,#207,.T.);
#471=EDGE_CURVE('',#387,#376,#208,.T.);
#472=EDGE_CURVE('',#381,#387,#209,.T.);
#473=EDGE_CURVE('',#385,#388,#210,.T.);
#474=EDGE_CURVE('',#389,#388,#211,.T.);
#475=EDGE_CURVE('',#389,#382,#212,.T.);
#476=EDGE_CURVE('',#390,#391,#213,.T.);
#477=EDGE_CURVE('',#391,#392,#50,.T.);
#478=EDGE_CURVE('',#392,#393,#214,.T.);
#479=EDGE_CURVE('',#393,#394,#51,.T.);
#480=EDGE_CURVE('',#394,#395,#215,.T.);
#481=EDGE_CURVE('',#395,#396,#52,.T.);
#482=EDGE_CURVE('',#396,#397,#216,.T.);
#483=EDGE_CURVE('',#397,#390,#53,.T.);
#484=EDGE_CURVE('',#398,#399,#54,.T.);
#485=EDGE_CURVE('',#400,#398,#217,.T.);
#486=EDGE_CURVE('',#401,#400,#55,.T.);
#487=EDGE_CURVE('',#399,#401,#218,.T.);
#488=EDGE_CURVE('',#402,#403,#219,.T.);
#489=EDGE_CURVE('',#404,#402,#56,.T.);
#490=EDGE_CURVE('',#405,#404,#220,.T.);
#491=EDGE_CURVE('',#403,#405,#57,.T.);
#492=EDGE_CURVE('',#406,#385,#221,.T.);
#493=EDGE_CURVE('',#407,#406,#222,.T.);
#494=EDGE_CURVE('',#388,#407,#223,.T.);
#495=EDGE_CURVE('',#383,#406,#224,.T.);
#496=EDGE_CURVE('',#406,#372,#58,.T.);
#497=EDGE_CURVE('',#408,#409,#225,.T.);
#498=EDGE_CURVE('',#409,#410,#226,.T.);
#499=EDGE_CURVE('',#411,#410,#189,.T.);
#500=EDGE_CURVE('',#411,#412,#227,.T.);
#501=EDGE_CURVE('',#413,#412,#190,.T.);
#502=EDGE_CURVE('',#413,#408,#228,.T.);
#503=EDGE_CURVE('',#414,#415,#59,.T.);
#504=EDGE_CURVE('',#415,#416,#229,.T.);
#505=EDGE_CURVE('',#416,#417,#60,.T.);
#506=EDGE_CURVE('',#417,#414,#230,.T.);
#507=EDGE_CURVE('',#418,#408,#231,.T.);
#508=EDGE_CURVE('',#388,#418,#61,.T.);
#509=EDGE_CURVE('',#408,#407,#62,.T.);
#510=EDGE_CURVE('',#419,#418,#232,.T.);
#511=EDGE_CURVE('',#419,#389,#63,.T.);
#512=EDGE_CURVE('',#409,#419,#233,.T.);
#513=EDGE_CURVE('',#420,#419,#234,.T.);
#514=EDGE_CURVE('',#410,#420,#235,.T.);
#515=EDGE_CURVE('',#421,#413,#236,.T.);
#516=EDGE_CURVE('',#418,#421,#237,.T.);
#517=EDGE_CURVE('',#422,#387,#191,.T.);
#518=EDGE_CURVE('',#422,#423,#238,.T.);
#519=EDGE_CURVE('',#386,#423,#192,.T.);
#520=EDGE_CURVE('',#424,#425,#64,.T.);
#521=EDGE_CURVE('',#425,#426,#239,.T.);
#522=EDGE_CURVE('',#426,#427,#65,.T.);
#523=EDGE_CURVE('',#427,#424,#240,.T.);
#524=EDGE_CURVE('',#428,#389,#241,.T.);
#525=EDGE_CURVE('',#383,#428,#242,.T.);
#526=EDGE_CURVE('',#407,#428,#243,.T.);
#527=EDGE_CURVE('',#428,#409,#66,.T.);
#528=EDGE_CURVE('',#412,#429,#244,.T.);
#529=EDGE_CURVE('',#429,#421,#193,.T.);
#530=EDGE_CURVE('',#429,#430,#245,.T.);
#531=EDGE_CURVE('',#420,#430,#194,.T.);
#532=EDGE_CURVE('',#431,#432,#67,.T.);
#533=EDGE_CURVE('',#432,#433,#246,.T.);
#534=EDGE_CURVE('',#433,#434,#68,.T.);
#535=EDGE_CURVE('',#434,#431,#247,.T.);
#536=EDGE_CURVE('',#430,#411,#248,.T.);
#537=EDGE_CURVE('',#423,#374,#249,.T.);
#538=EDGE_CURVE('',#375,#422,#250,.T.);
#539=EDGE_CURVE('',#378,#424,#251,.T.);
#540=EDGE_CURVE('',#377,#425,#252,.T.);
#541=EDGE_CURVE('',#379,#427,#253,.T.);
#542=EDGE_CURVE('',#380,#426,#254,.T.);
#543=EDGE_CURVE('',#415,#431,#255,.T.);
#544=EDGE_CURVE('',#414,#432,#256,.T.);
#545=EDGE_CURVE('',#417,#433,#257,.T.);
#546=EDGE_CURVE('',#416,#434,#258,.T.);
#547=EDGE_CURVE('',#435,#390,#259,.T.);
#548=EDGE_CURVE('',#436,#435,#260,.T.);
#549=EDGE_CURVE('',#436,#391,#261,.T.);
#550=EDGE_CURVE('',#437,#436,#69,.T.);
#551=EDGE_CURVE('',#437,#392,#262,.T.);
#552=EDGE_CURVE('',#438,#437,#263,.T.);
#553=EDGE_CURVE('',#438,#393,#264,.T.);
#554=EDGE_CURVE('',#439,#438,#70,.T.);
#555=EDGE_CURVE('',#439,#394,#265,.T.);
#556=EDGE_CURVE('',#440,#439,#266,.T.);
#557=EDGE_CURVE('',#440,#395,#267,.T.);
#558=EDGE_CURVE('',#441,#440,#71,.T.);
#559=EDGE_CURVE('',#441,#396,#268,.T.);
#560=EDGE_CURVE('',#442,#441,#269,.T.);
#561=EDGE_CURVE('',#442,#397,#270,.T.);
#562=EDGE_CURVE('',#435,#442,#72,.T.);
#563=EDGE_CURVE('',#402,#443,#271,.T.);
#564=EDGE_CURVE('',#444,#443,#73,.T.);
#565=EDGE_CURVE('',#404,#444,#272,.T.);
#566=EDGE_CURVE('',#445,#444,#273,.T.);
#567=EDGE_CURVE('',#405,#445,#274,.T.);
#568=EDGE_CURVE('',#446,#445,#74,.T.);
#569=EDGE_CURVE('',#403,#446,#275,.T.);
#570=EDGE_CURVE('',#443,#446,#276,.T.);
#571=EDGE_CURVE('',#398,#447,#277,.T.);
#572=EDGE_CURVE('',#448,#447,#278,.T.);
#573=EDGE_CURVE('',#400,#448,#279,.T.);
#574=EDGE_CURVE('',#449,#448,#75,.T.);
#575=EDGE_CURVE('',#401,#449,#280,.T.);
#576=EDGE_CURVE('',#450,#449,#281,.T.);
#577=EDGE_CURVE('',#399,#450,#282,.T.);
#578=EDGE_CURVE('',#447,#450,#76,.T.);
#579=ORIENTED_EDGE('',*,*,#451,.T.);
#580=ORIENTED_EDGE('',*,*,#452,.T.);
#581=ORIENTED_EDGE('',*,*,#453,.F.);
#582=ORIENTED_EDGE('',*,*,#454,.T.);
#583=ORIENTED_EDGE('',*,*,#455,.F.);
#584=ORIENTED_EDGE('',*,*,#456,.T.);
#585=ORIENTED_EDGE('',*,*,#457,.T.);
#586=ORIENTED_EDGE('',*,*,#458,.T.);
#587=ORIENTED_EDGE('',*,*,#459,.T.);
#588=ORIENTED_EDGE('',*,*,#460,.T.);
#589=ORIENTED_EDGE('',*,*,#461,.F.);
#590=ORIENTED_EDGE('',*,*,#462,.F.);
#591=ORIENTED_EDGE('',*,*,#463,.T.);
#592=ORIENTED_EDGE('',*,*,#464,.F.);
#593=ORIENTED_EDGE('',*,*,#465,.F.);
#594=ORIENTED_EDGE('',*,*,#466,.T.);
#595=ORIENTED_EDGE('',*,*,#467,.T.);
#596=ORIENTED_EDGE('',*,*,#462,.T.);
#597=ORIENTED_EDGE('',*,*,#468,.T.);
#598=ORIENTED_EDGE('',*,*,#469,.F.);
#599=ORIENTED_EDGE('',*,*,#470,.F.);
#600=ORIENTED_EDGE('',*,*,#452,.F.);
#601=ORIENTED_EDGE('',*,*,#461,.T.);
#602=ORIENTED_EDGE('',*,*,#456,.F.);
#603=ORIENTED_EDGE('',*,*,#471,.F.);
#604=ORIENTED_EDGE('',*,*,#472,.F.);
#605=ORIENTED_EDGE('',*,*,#467,.F.);
#606=ORIENTED_EDGE('',*,*,#473,.T.);
#607=ORIENTED_EDGE('',*,*,#474,.F.);
#608=ORIENTED_EDGE('',*,*,#475,.T.);
#609=ORIENTED_EDGE('',*,*,#476,.T.);
#610=ORIENTED_EDGE('',*,*,#477,.T.);
#611=ORIENTED_EDGE('',*,*,#478,.T.);
#612=ORIENTED_EDGE('',*,*,#479,.T.);
#613=ORIENTED_EDGE('',*,*,#480,.T.);
#614=ORIENTED_EDGE('',*,*,#481,.T.);
#615=ORIENTED_EDGE('',*,*,#482,.T.);
#616=ORIENTED_EDGE('',*,*,#483,.T.);
#617=ORIENTED_EDGE('',*,*,#484,.F.);
#618=ORIENTED_EDGE('',*,*,#485,.F.);
#619=ORIENTED_EDGE('',*,*,#486,.F.);
#620=ORIENTED_EDGE('',*,*,#487,.F.);
#621=ORIENTED_EDGE('',*,*,#488,.F.);
#622=ORIENTED_EDGE('',*,*,#489,.F.);
#623=ORIENTED_EDGE('',*,*,#490,.F.);
#624=ORIENTED_EDGE('',*,*,#491,.F.);
#625=ORIENTED_EDGE('',*,*,#492,.F.);
#626=ORIENTED_EDGE('',*,*,#493,.F.);
#627=ORIENTED_EDGE('',*,*,#494,.F.);
#628=ORIENTED_EDGE('',*,*,#473,.F.);
#629=ORIENTED_EDGE('',*,*,#451,.F.);
#630=ORIENTED_EDGE('',*,*,#464,.T.);
#631=ORIENTED_EDGE('',*,*,#495,.T.);
#632=ORIENTED_EDGE('',*,*,#496,.T.);
#633=ORIENTED_EDGE('',*,*,#497,.T.);
#634=ORIENTED_EDGE('',*,*,#498,.T.);
#635=ORIENTED_EDGE('',*,*,#499,.F.);
#636=ORIENTED_EDGE('',*,*,#500,.T.);
#637=ORIENTED_EDGE('',*,*,#501,.F.);
#638=ORIENTED_EDGE('',*,*,#502,.T.);
#639=ORIENTED_EDGE('',*,*,#503,.T.);
#640=ORIENTED_EDGE('',*,*,#504,.T.);
#641=ORIENTED_EDGE('',*,*,#505,.T.);
#642=ORIENTED_EDGE('',*,*,#506,.T.);
#643=ORIENTED_EDGE('',*,*,#507,.F.);
#644=ORIENTED_EDGE('',*,*,#508,.F.);
#645=ORIENTED_EDGE('',*,*,#494,.T.);
#646=ORIENTED_EDGE('',*,*,#509,.F.);
#647=ORIENTED_EDGE('',*,*,#510,.F.);
#648=ORIENTED_EDGE('',*,*,#511,.T.);
#649=ORIENTED_EDGE('',*,*,#474,.T.);
#650=ORIENTED_EDGE('',*,*,#508,.T.);
#651=ORIENTED_EDGE('',*,*,#512,.T.);
#652=ORIENTED_EDGE('',*,*,#513,.F.);
#653=ORIENTED_EDGE('',*,*,#514,.F.);
#654=ORIENTED_EDGE('',*,*,#498,.F.);
#655=ORIENTED_EDGE('',*,*,#507,.T.);
#656=ORIENTED_EDGE('',*,*,#502,.F.);
#657=ORIENTED_EDGE('',*,*,#515,.F.);
#658=ORIENTED_EDGE('',*,*,#516,.F.);
#659=ORIENTED_EDGE('',*,*,#465,.T.);
#660=ORIENTED_EDGE('',*,*,#472,.T.);
#661=ORIENTED_EDGE('',*,*,#517,.F.);
#662=ORIENTED_EDGE('',*,*,#518,.T.);
#663=ORIENTED_EDGE('',*,*,#519,.F.);
#664=ORIENTED_EDGE('',*,*,#469,.T.);
#665=ORIENTED_EDGE('',*,*,#520,.T.);
#666=ORIENTED_EDGE('',*,*,#521,.T.);
#667=ORIENTED_EDGE('',*,*,#522,.T.);
#668=ORIENTED_EDGE('',*,*,#523,.T.);
#669=ORIENTED_EDGE('',*,*,#463,.F.);
#670=ORIENTED_EDGE('',*,*,#475,.F.);
#671=ORIENTED_EDGE('',*,*,#524,.F.);
#672=ORIENTED_EDGE('',*,*,#525,.F.);
#673=ORIENTED_EDGE('',*,*,#497,.F.);
#674=ORIENTED_EDGE('',*,*,#509,.T.);
#675=ORIENTED_EDGE('',*,*,#526,.T.);
#676=ORIENTED_EDGE('',*,*,#527,.T.);
#677=ORIENTED_EDGE('',*,*,#501,.T.);
#678=ORIENTED_EDGE('',*,*,#528,.T.);
#679=ORIENTED_EDGE('',*,*,#529,.T.);
#680=ORIENTED_EDGE('',*,*,#515,.T.);
#681=ORIENTED_EDGE('',*,*,#510,.T.);
#682=ORIENTED_EDGE('',*,*,#516,.T.);
#683=ORIENTED_EDGE('',*,*,#529,.F.);
#684=ORIENTED_EDGE('',*,*,#530,.T.);
#685=ORIENTED_EDGE('',*,*,#531,.F.);
#686=ORIENTED_EDGE('',*,*,#513,.T.);
#687=ORIENTED_EDGE('',*,*,#532,.T.);
#688=ORIENTED_EDGE('',*,*,#533,.T.);
#689=ORIENTED_EDGE('',*,*,#534,.T.);
#690=ORIENTED_EDGE('',*,*,#535,.T.);
#691=ORIENTED_EDGE('',*,*,#528,.F.);
#692=ORIENTED_EDGE('',*,*,#500,.F.);
#693=ORIENTED_EDGE('',*,*,#536,.F.);
#694=ORIENTED_EDGE('',*,*,#530,.F.);
#695=ORIENTED_EDGE('',*,*,#499,.T.);
#696=ORIENTED_EDGE('',*,*,#514,.T.);
#697=ORIENTED_EDGE('',*,*,#531,.T.);
#698=ORIENTED_EDGE('',*,*,#536,.T.);
#699=ORIENTED_EDGE('',*,*,#453,.T.);
#700=ORIENTED_EDGE('',*,*,#470,.T.);
#701=ORIENTED_EDGE('',*,*,#519,.T.);
#702=ORIENTED_EDGE('',*,*,#537,.T.);
#703=ORIENTED_EDGE('',*,*,#537,.F.);
#704=ORIENTED_EDGE('',*,*,#518,.F.);
#705=ORIENTED_EDGE('',*,*,#538,.F.);
#706=ORIENTED_EDGE('',*,*,#454,.F.);
#707=ORIENTED_EDGE('',*,*,#455,.T.);
#708=ORIENTED_EDGE('',*,*,#538,.T.);
#709=ORIENTED_EDGE('',*,*,#517,.T.);
#710=ORIENTED_EDGE('',*,*,#471,.T.);
#711=ORIENTED_EDGE('',*,*,#520,.F.);
#712=ORIENTED_EDGE('',*,*,#539,.F.);
#713=ORIENTED_EDGE('',*,*,#457,.F.);
#714=ORIENTED_EDGE('',*,*,#540,.T.);
#715=ORIENTED_EDGE('',*,*,#523,.F.);
#716=ORIENTED_EDGE('',*,*,#541,.F.);
#717=ORIENTED_EDGE('',*,*,#458,.F.);
#718=ORIENTED_EDGE('',*,*,#539,.T.);
#719=ORIENTED_EDGE('',*,*,#522,.F.);
#720=ORIENTED_EDGE('',*,*,#542,.F.);
#721=ORIENTED_EDGE('',*,*,#459,.F.);
#722=ORIENTED_EDGE('',*,*,#541,.T.);
#723=ORIENTED_EDGE('',*,*,#521,.F.);
#724=ORIENTED_EDGE('',*,*,#540,.F.);
#725=ORIENTED_EDGE('',*,*,#460,.F.);
#726=ORIENTED_EDGE('',*,*,#542,.T.);
#727=ORIENTED_EDGE('',*,*,#532,.F.);
#728=ORIENTED_EDGE('',*,*,#543,.F.);
#729=ORIENTED_EDGE('',*,*,#503,.F.);
#730=ORIENTED_EDGE('',*,*,#544,.T.);
#731=ORIENTED_EDGE('',*,*,#533,.F.);
#732=ORIENTED_EDGE('',*,*,#544,.F.);
#733=ORIENTED_EDGE('',*,*,#506,.F.);
#734=ORIENTED_EDGE('',*,*,#545,.T.);
#735=ORIENTED_EDGE('',*,*,#534,.F.);
#736=ORIENTED_EDGE('',*,*,#545,.F.);
#737=ORIENTED_EDGE('',*,*,#505,.F.);
#738=ORIENTED_EDGE('',*,*,#546,.T.);
#739=ORIENTED_EDGE('',*,*,#535,.F.);
#740=ORIENTED_EDGE('',*,*,#546,.F.);
#741=ORIENTED_EDGE('',*,*,#504,.F.);
#742=ORIENTED_EDGE('',*,*,#543,.T.);
#743=ORIENTED_EDGE('',*,*,#476,.F.);
#744=ORIENTED_EDGE('',*,*,#547,.F.);
#745=ORIENTED_EDGE('',*,*,#548,.F.);
#746=ORIENTED_EDGE('',*,*,#549,.T.);
#747=ORIENTED_EDGE('',*,*,#477,.F.);
#748=ORIENTED_EDGE('',*,*,#549,.F.);
#749=ORIENTED_EDGE('',*,*,#550,.F.);
#750=ORIENTED_EDGE('',*,*,#551,.T.);
#751=ORIENTED_EDGE('',*,*,#478,.F.);
#752=ORIENTED_EDGE('',*,*,#551,.F.);
#753=ORIENTED_EDGE('',*,*,#552,.F.);
#754=ORIENTED_EDGE('',*,*,#553,.T.);
#755=ORIENTED_EDGE('',*,*,#479,.F.);
#756=ORIENTED_EDGE('',*,*,#553,.F.);
#757=ORIENTED_EDGE('',*,*,#554,.F.);
#758=ORIENTED_EDGE('',*,*,#555,.T.);
#759=ORIENTED_EDGE('',*,*,#480,.F.);
#760=ORIENTED_EDGE('',*,*,#555,.F.);
#761=ORIENTED_EDGE('',*,*,#556,.F.);
#762=ORIENTED_EDGE('',*,*,#557,.T.);
#763=ORIENTED_EDGE('',*,*,#481,.F.);
#764=ORIENTED_EDGE('',*,*,#557,.F.);
#765=ORIENTED_EDGE('',*,*,#558,.F.);
#766=ORIENTED_EDGE('',*,*,#559,.T.);
#767=ORIENTED_EDGE('',*,*,#482,.F.);
#768=ORIENTED_EDGE('',*,*,#559,.F.);
#769=ORIENTED_EDGE('',*,*,#560,.F.);
#770=ORIENTED_EDGE('',*,*,#561,.T.);
#771=ORIENTED_EDGE('',*,*,#483,.F.);
#772=ORIENTED_EDGE('',*,*,#561,.F.);
#773=ORIENTED_EDGE('',*,*,#562,.F.);
#774=ORIENTED_EDGE('',*,*,#547,.T.);
#775=ORIENTED_EDGE('',*,*,#489,.T.);
#776=ORIENTED_EDGE('',*,*,#563,.T.);
#777=ORIENTED_EDGE('',*,*,#564,.F.);
#778=ORIENTED_EDGE('',*,*,#565,.F.);
#779=ORIENTED_EDGE('',*,*,#490,.T.);
#780=ORIENTED_EDGE('',*,*,#565,.T.);
#781=ORIENTED_EDGE('',*,*,#566,.F.);
#782=ORIENTED_EDGE('',*,*,#567,.F.);
#783=ORIENTED_EDGE('',*,*,#491,.T.);
#784=ORIENTED_EDGE('',*,*,#567,.T.);
#785=ORIENTED_EDGE('',*,*,#568,.F.);
#786=ORIENTED_EDGE('',*,*,#569,.F.);
#787=ORIENTED_EDGE('',*,*,#488,.T.);
#788=ORIENTED_EDGE('',*,*,#569,.T.);
#789=ORIENTED_EDGE('',*,*,#570,.F.);
#790=ORIENTED_EDGE('',*,*,#563,.F.);
#791=ORIENTED_EDGE('',*,*,#485,.T.);
#792=ORIENTED_EDGE('',*,*,#571,.T.);
#793=ORIENTED_EDGE('',*,*,#572,.F.);
#794=ORIENTED_EDGE('',*,*,#573,.F.);
#795=ORIENTED_EDGE('',*,*,#486,.T.);
#796=ORIENTED_EDGE('',*,*,#573,.T.);
#797=ORIENTED_EDGE('',*,*,#574,.F.);
#798=ORIENTED_EDGE('',*,*,#575,.F.);
#799=ORIENTED_EDGE('',*,*,#487,.T.);
#800=ORIENTED_EDGE('',*,*,#575,.T.);
#801=ORIENTED_EDGE('',*,*,#576,.F.);
#802=ORIENTED_EDGE('',*,*,#577,.F.);
#803=ORIENTED_EDGE('',*,*,#484,.T.);
#804=ORIENTED_EDGE('',*,*,#577,.T.);
#805=ORIENTED_EDGE('',*,*,#578,.F.);
#806=ORIENTED_EDGE('',*,*,#571,.F.);
#807=ORIENTED_EDGE('',*,*,#512,.F.);
#808=ORIENTED_EDGE('',*,*,#527,.F.);
#809=ORIENTED_EDGE('',*,*,#524,.T.);
#810=ORIENTED_EDGE('',*,*,#511,.F.);
#811=ORIENTED_EDGE('',*,*,#468,.F.);
#812=ORIENTED_EDGE('',*,*,#496,.F.);
#813=ORIENTED_EDGE('',*,*,#492,.T.);
#814=ORIENTED_EDGE('',*,*,#466,.F.);
#815=ORIENTED_EDGE('',*,*,#495,.F.);
#816=ORIENTED_EDGE('',*,*,#525,.T.);
#817=ORIENTED_EDGE('',*,*,#526,.F.);
#818=ORIENTED_EDGE('',*,*,#493,.T.);
#819=ORIENTED_EDGE('',*,*,#548,.T.);
#820=ORIENTED_EDGE('',*,*,#562,.T.);
#821=ORIENTED_EDGE('',*,*,#560,.T.);
#822=ORIENTED_EDGE('',*,*,#558,.T.);
#823=ORIENTED_EDGE('',*,*,#556,.T.);
#824=ORIENTED_EDGE('',*,*,#554,.T.);
#825=ORIENTED_EDGE('',*,*,#552,.T.);
#826=ORIENTED_EDGE('',*,*,#550,.T.);
#827=ORIENTED_EDGE('',*,*,#578,.T.);
#828=ORIENTED_EDGE('',*,*,#576,.T.);
#829=ORIENTED_EDGE('',*,*,#574,.T.);
#830=ORIENTED_EDGE('',*,*,#572,.T.);
#831=ORIENTED_EDGE('',*,*,#570,.T.);
#832=ORIENTED_EDGE('',*,*,#568,.T.);
#833=ORIENTED_EDGE('',*,*,#566,.T.);
#834=ORIENTED_EDGE('',*,*,#564,.T.);
#835=PLANE('',#929);
#836=PLANE('',#932);
#837=PLANE('',#937);
#838=PLANE('',#938);
#839=PLANE('',#939);
#840=PLANE('',#948);
#841=PLANE('',#951);
#842=PLANE('',#954);
#843=PLANE('',#959);
#844=PLANE('',#960);
#845=PLANE('',#961);
#846=PLANE('',#964);
#847=PLANE('',#967);
#848=PLANE('',#970);
#849=PLANE('',#971);
#850=PLANE('',#973);
#851=PLANE('',#975);
#852=PLANE('',#977);
#853=PLANE('',#979);
#854=PLANE('',#980);
#855=PLANE('',#983);
#856=PLANE('',#986);
#857=PLANE('',#989);
#858=PLANE('',#994);
#859=PLANE('',#997);
#860=PLANE('',#998);
#861=PLANE('',#1001);
#862=PLANE('',#1004);
#863=PLANE('',#1005);
#864=PLANE('',#1006);
#865=ADVANCED_FACE('',(#77,#35),#835,.T.);
#866=ADVANCED_FACE('',(#78),#836,.T.);
#867=ADVANCED_FACE('',(#79),#19,.T.);
#868=ADVANCED_FACE('',(#80),#837,.T.);
#869=ADVANCED_FACE('',(#81),#838,.T.);
#870=ADVANCED_FACE('',(#82,#36,#37,#38),#839,.F.);
#871=ADVANCED_FACE('',(#83),#840,.T.);
#872=ADVANCED_FACE('',(#84),#20,.F.);
#873=ADVANCED_FACE('',(#85,#39),#841,.T.);
#874=ADVANCED_FACE('',(#86),#842,.T.);
#875=ADVANCED_FACE('',(#87),#21,.T.);
#876=ADVANCED_FACE('',(#88),#843,.T.);
#877=ADVANCED_FACE('',(#89),#844,.T.);
#878=ADVANCED_FACE('',(#90,#40),#845,.F.);
#879=ADVANCED_FACE('',(#91),#846,.T.);
#880=ADVANCED_FACE('',(#92),#22,.F.);
#881=ADVANCED_FACE('',(#93),#15,.F.);
#882=ADVANCED_FACE('',(#94,#41),#847,.F.);
#883=ADVANCED_FACE('',(#95),#848,.T.);
#884=ADVANCED_FACE('',(#96),#16,.F.);
#885=ADVANCED_FACE('',(#97),#17,.F.);
#886=ADVANCED_FACE('',(#98),#849,.T.);
#887=ADVANCED_FACE('',(#99),#18,.F.);
#888=ADVANCED_FACE('',(#100),#23,.F.);
#889=ADVANCED_FACE('',(#101),#850,.T.);
#890=ADVANCED_FACE('',(#102),#24,.F.);
#891=ADVANCED_FACE('',(#103),#851,.T.);
#892=ADVANCED_FACE('',(#104),#25,.F.);
#893=ADVANCED_FACE('',(#105),#852,.F.);
#894=ADVANCED_FACE('',(#106),#26,.F.);
#895=ADVANCED_FACE('',(#107),#853,.F.);
#896=ADVANCED_FACE('',(#108),#854,.F.);
#897=ADVANCED_FACE('',(#109),#27,.F.);
#898=ADVANCED_FACE('',(#110),#855,.F.);
#899=ADVANCED_FACE('',(#111),#28,.F.);
#900=ADVANCED_FACE('',(#112),#856,.F.);
#901=ADVANCED_FACE('',(#113),#29,.F.);
#902=ADVANCED_FACE('',(#114),#857,.F.);
#903=ADVANCED_FACE('',(#115),#30,.F.);
#904=ADVANCED_FACE('',(#116),#31,.F.);
#905=ADVANCED_FACE('',(#117),#858,.T.);
#906=ADVANCED_FACE('',(#118),#32,.F.);
#907=ADVANCED_FACE('',(#119),#859,.T.);
#908=ADVANCED_FACE('',(#120),#860,.T.);
#909=ADVANCED_FACE('',(#121),#33,.F.);
#910=ADVANCED_FACE('',(#122),#861,.T.);
#911=ADVANCED_FACE('',(#123),#34,.F.);
#912=ADVANCED_FACE('',(#124),#862,.T.);
#913=ADVANCED_FACE('',(#125),#863,.T.);
#914=ADVANCED_FACE('',(#126,#42,#43,#44),#864,.T.);
#915=CLOSED_SHELL('',(#865,#866,#867,#868,#869,#870,#871,#872,#873,#874,
#875,#876,#877,#878,#879,#880,#881,#882,#883,#884,#885,#886,#887,#888,#889,
#890,#891,#892,#893,#894,#895,#896,#897,#898,#899,#900,#901,#902,#903,#904,
#905,#906,#907,#908,#909,#910,#911,#912,#913,#914));
#916=DERIVED_UNIT_ELEMENT(#918,1.);
#917=DERIVED_UNIT_ELEMENT(#1841,-3.);
#918=(
MASS_UNIT()
NAMED_UNIT(*)
SI_UNIT(.KILO.,.GRAM.)
);
#919=DERIVED_UNIT((#916,#917));
#920=MEASURE_REPRESENTATION_ITEM('density measure',
POSITIVE_RATIO_MEASURE(7850.),#919);
#921=PROPERTY_DEFINITION_REPRESENTATION(#926,#923);
#922=PROPERTY_DEFINITION_REPRESENTATION(#927,#924);
#923=REPRESENTATION('material name',(#925),#1838);
#924=REPRESENTATION('density',(#920),#1838);
#925=DESCRIPTIVE_REPRESENTATION_ITEM('Steel','Steel');
#926=PROPERTY_DEFINITION('material property','material name',#1848);
#927=PROPERTY_DEFINITION('material property','density of part',#1848);
#928=AXIS2_PLACEMENT_3D('',#1253,#1007,#1008);
#929=AXIS2_PLACEMENT_3D('',#1254,#1009,#1010);
#930=AXIS2_PLACEMENT_3D('',#1311,#1015,#1016);
#931=AXIS2_PLACEMENT_3D('',#1315,#1018,#1019);
#932=AXIS2_PLACEMENT_3D('',#1317,#1021,#1022);
#933=AXIS2_PLACEMENT_3D('',#1321,#1024,#1025);
#934=AXIS2_PLACEMENT_3D('',#1324,#1027,#1028);
#935=AXIS2_PLACEMENT_3D('',#1325,#1029,#1030);
#936=AXIS2_PLACEMENT_3D('',#1329,#1032,#1033);
#937=AXIS2_PLACEMENT_3D('',#1331,#1035,#1036);
#938=AXIS2_PLACEMENT_3D('',#1336,#1040,#1041);
#939=AXIS2_PLACEMENT_3D('',#1340,#1044,#1045);
#940=AXIS2_PLACEMENT_3D('',#1350,#1050,#1051);
#941=AXIS2_PLACEMENT_3D('',#1354,#1053,#1054);
#942=AXIS2_PLACEMENT_3D('',#1358,#1056,#1057);
#943=AXIS2_PLACEMENT_3D('',#1361,#1059,#1060);
#944=AXIS2_PLACEMENT_3D('',#1364,#1061,#1062);
#945=AXIS2_PLACEMENT_3D('',#1368,#1064,#1065);
#946=AXIS2_PLACEMENT_3D('',#1374,#1068,#1069);
#947=AXIS2_PLACEMENT_3D('',#1377,#1071,#1072);
#948=AXIS2_PLACEMENT_3D('',#1378,#1073,#1074);
#949=AXIS2_PLACEMENT_3D('',#1384,#1078,#1079);
#950=AXIS2_PLACEMENT_3D('',#1386,#1081,#1082);
#951=AXIS2_PLACEMENT_3D('',#1387,#1083,#1084);
#952=AXIS2_PLACEMENT_3D('',#1444,#1089,#1090);
#953=AXIS2_PLACEMENT_3D('',#1448,#1092,#1093);
#954=AXIS2_PLACEMENT_3D('',#1450,#1095,#1096);
#955=AXIS2_PLACEMENT_3D('',#1453,#1098,#1099);
#956=AXIS2_PLACEMENT_3D('',#1454,#1100,#1101);
#957=AXIS2_PLACEMENT_3D('',#1455,#1102,#1103);
#958=AXIS2_PLACEMENT_3D('',#1458,#1105,#1106);
#959=AXIS2_PLACEMENT_3D('',#1459,#1107,#1108);
#960=AXIS2_PLACEMENT_3D('',#1464,#1112,#1113);
#961=AXIS2_PLACEMENT_3D('',#1468,#1116,#1117);
#962=AXIS2_PLACEMENT_3D('',#1518,#1119,#1120);
#963=AXIS2_PLACEMENT_3D('',#1522,#1122,#1123);
#964=AXIS2_PLACEMENT_3D('',#1524,#1125,#1126);
#965=AXIS2_PLACEMENT_3D('',#1528,#1129,#1130);
#966=AXIS2_PLACEMENT_3D('',#1530,#1132,#1133);
#967=AXIS2_PLACEMENT_3D('',#1595,#1135,#1136);
#968=AXIS2_PLACEMENT_3D('',#1622,#1138,#1139);
#969=AXIS2_PLACEMENT_3D('',#1626,#1141,#1142);
#970=AXIS2_PLACEMENT_3D('',#1628,#1144,#1145);
#971=AXIS2_PLACEMENT_3D('',#1711,#1148,#1149);
#972=AXIS2_PLACEMENT_3D('',#1753,#1151,#1152);
#973=AXIS2_PLACEMENT_3D('',#1756,#1155,#1156);
#974=AXIS2_PLACEMENT_3D('',#1758,#1158,#1159);
#975=AXIS2_PLACEMENT_3D('',#1760,#1161,#1162);
#976=AXIS2_PLACEMENT_3D('',#1761,#1163,#1164);
#977=AXIS2_PLACEMENT_3D('',#1764,#1167,#1168);
#978=AXIS2_PLACEMENT_3D('',#1766,#1170,#1171);
#979=AXIS2_PLACEMENT_3D('',#1768,#1173,#1174);
#980=AXIS2_PLACEMENT_3D('',#1769,#1175,#1176);
#981=AXIS2_PLACEMENT_3D('',#1775,#1180,#1181);
#982=AXIS2_PLACEMENT_3D('',#1777,#1182,#1183);
#983=AXIS2_PLACEMENT_3D('',#1779,#1185,#1186);
#984=AXIS2_PLACEMENT_3D('',#1783,#1189,#1190);
#985=AXIS2_PLACEMENT_3D('',#1785,#1191,#1192);
#986=AXIS2_PLACEMENT_3D('',#1787,#1194,#1195);
#987=AXIS2_PLACEMENT_3D('',#1791,#1198,#1199);
#988=AXIS2_PLACEMENT_3D('',#1793,#1200,#1201);
#989=AXIS2_PLACEMENT_3D('',#1795,#1203,#1204);
#990=AXIS2_PLACEMENT_3D('',#1799,#1207,#1208);
#991=AXIS2_PLACEMENT_3D('',#1800,#1209,#1210);
#992=AXIS2_PLACEMENT_3D('',#1801,#1211,#1212);
#993=AXIS2_PLACEMENT_3D('',#1805,#1214,#1215);
#994=AXIS2_PLACEMENT_3D('',#1807,#1217,#1218);
#995=AXIS2_PLACEMENT_3D('',#1811,#1221,#1222);
#996=AXIS2_PLACEMENT_3D('',#1813,#1223,#1224);
#997=AXIS2_PLACEMENT_3D('',#1815,#1226,#1227);
#998=AXIS2_PLACEMENT_3D('',#1817,#1229,#1230);
#999=AXIS2_PLACEMENT_3D('',#1823,#1234,#1235);
#1000=AXIS2_PLACEMENT_3D('',#1825,#1236,#1237);
#1001=AXIS2_PLACEMENT_3D('',#1827,#1239,#1240);
#1002=AXIS2_PLACEMENT_3D('',#1831,#1243,#1244);
#1003=AXIS2_PLACEMENT_3D('',#1832,#1245,#1246);
#1004=AXIS2_PLACEMENT_3D('',#1833,#1247,#1248);
#1005=AXIS2_PLACEMENT_3D('',#1834,#1249,#1250);
#1006=AXIS2_PLACEMENT_3D('',#1835,#1251,#1252);
#1007=DIRECTION('axis',(0.,0.,1.));
#1008=DIRECTION('refdir',(1.,0.,0.));
#1009=DIRECTION('center_axis',(-1.,5.39030285815812E-15,0.));
#1010=DIRECTION('ref_axis',(5.39030285815812E-15,1.,0.));
#1011=DIRECTION('',(0.,0.,1.));
#1012=DIRECTION('',(5.39030285815812E-15,1.,0.));
#1013=DIRECTION('',(0.,0.,-1.));
#1014=DIRECTION('',(-5.39030285815812E-15,-1.,-1.45011195812686E-33));
#1015=DIRECTION('center_axis',(1.,-5.39030285815812E-15,0.));
#1016=DIRECTION('ref_axis',(5.39030285815812E-15,1.,6.16297582203915E-33));
#1017=DIRECTION('',(-3.3220306188297E-47,-6.16297582203915E-33,1.));
#1018=DIRECTION('center_axis',(1.,-5.39030285815812E-15,0.));
#1019=DIRECTION('ref_axis',(5.39030285815812E-15,1.,6.16297582203915E-33));
#1020=DIRECTION('',(3.3220306188297E-47,6.16297582203915E-33,-1.));
#1021=DIRECTION('center_axis',(0.,0.,-1.));
#1022=DIRECTION('ref_axis',(-1.,0.,0.));
#1023=DIRECTION('',(-1.,5.39030285815812E-15,0.));
#1024=DIRECTION('center_axis',(0.,0.,1.));
#1025=DIRECTION('ref_axis',(0.,-1.,0.));
#1026=DIRECTION('',(0.,1.,0.));
#1027=DIRECTION('center_axis',(0.,0.,-1.));
#1028=DIRECTION('ref_axis',(1.,-5.46369598732846E-15,0.));
#1029=DIRECTION('center_axis',(0.,0.,1.));
#1030=DIRECTION('ref_axis',(0.,-1.,0.));
#1031=DIRECTION('',(0.,0.,-1.));
#1032=DIRECTION('center_axis',(0.,0.,-1.));
#1033=DIRECTION('ref_axis',(1.,-5.32710358764534E-15,0.));
#1034=DIRECTION('',(0.,0.,-1.));
#1035=DIRECTION('center_axis',(0.,0.,1.));
#1036=DIRECTION('ref_axis',(5.39030285815812E-15,1.,0.));
#1037=DIRECTION('',(1.,-5.39030285815812E-15,0.));
#1038=DIRECTION('',(-5.39030285815812E-15,-1.,0.));
#1039=DIRECTION('',(1.,-5.39030285815812E-15,0.));
#1040=DIRECTION('center_axis',(7.81654263254048E-48,1.45011195812686E-33,
-1.));
#1041=DIRECTION('ref_axis',(-5.39030285815812E-15,-1.,-1.45011195812686E-33));
#1042=DIRECTION('',(-1.,5.39030285815812E-15,0.));
#1043=DIRECTION('',(5.39030285815812E-15,1.,1.45011195812686E-33));
#1044=DIRECTION('center_axis',(0.,1.,0.));
#1045=DIRECTION('ref_axis',(1.,0.,0.));
#1046=DIRECTION('',(-1.,0.,0.));
#1047=DIRECTION('',(1.11020901370756E-16,0.,1.));
#1048=DIRECTION('',(1.,0.,1.45011195812686E-33));
#1049=DIRECTION('',(0.,0.,-1.));
#1050=DIRECTION('center_axis',(0.,1.,0.));
#1051=DIRECTION('ref_axis',(-1.,0.,0.));
#1052=DIRECTION('',(-1.,0.,5.86532918669894E-17));
#1053=DIRECTION('center_axis',(0.,1.,0.));
#1054=DIRECTION('ref_axis',(-1.,0.,0.));
#1055=DIRECTION('',(0.,0.,1.));
#1056=DIRECTION('center_axis',(0.,1.,0.));
#1057=DIRECTION('ref_axis',(-1.,0.,0.));
#1058=DIRECTION('',(1.,0.,6.70323335622736E-17));
#1059=DIRECTION('center_axis',(0.,1.,0.));
#1060=DIRECTION('ref_axis',(-1.,0.,0.));
#1061=DIRECTION('center_axis',(0.,-1.,0.));
#1062=DIRECTION('ref_axis',(1.,0.,0.));
#1063=DIRECTION('',(-1.,0.,-8.19352785701223E-18));
#1064=DIRECTION('center_axis',(0.,-1.,0.));
#1065=DIRECTION('ref_axis',(1.,0.,0.));
#1066=DIRECTION('',(1.,0.,4.09676392850611E-18));
#1067=DIRECTION('',(1.,0.,0.));
#1068=DIRECTION('center_axis',(0.,-1.,0.));
#1069=DIRECTION('ref_axis',(1.,0.,0.));
#1070=DIRECTION('',(-1.,0.,6.55482228560978E-17));
#1071=DIRECTION('center_axis',(0.,-1.,0.));
#1072=DIRECTION('ref_axis',(1.,0.,0.));
#1073=DIRECTION('center_axis',(0.,0.,1.));
#1074=DIRECTION('ref_axis',(1.,0.,0.));
#1075=DIRECTION('',(0.,-1.,0.));
#1076=DIRECTION('',(1.,0.,0.));
#1077=DIRECTION('',(0.,1.,0.));
#1078=DIRECTION('center_axis',(0.,0.,1.));
#1079=DIRECTION('ref_axis',(0.,-1.,0.));
#1080=DIRECTION('',(0.,0.,1.));
#1081=DIRECTION('center_axis',(0.,0.,1.));
#1082=DIRECTION('ref_axis',(0.,-1.,0.));
#1083=DIRECTION('center_axis',(1.,5.39030285815812E-15,-1.11022302462516E-16));
#1084=DIRECTION('ref_axis',(5.39030285815812E-15,-1.,1.11022302462515E-16));
#1085=DIRECTION('',(-1.11022302462516E-16,-1.40109175975983E-21,-1.));
#1086=DIRECTION('',(-5.39030285815812E-15,1.,-1.11022302462515E-16));
#1087=DIRECTION('',(1.11022302462515E-16,1.11022302462516E-16,1.));
#1088=DIRECTION('',(5.39030285815812E-15,-1.,1.11022302462515E-16));
#1089=DIRECTION('center_axis',(-1.,-5.39030285815812E-15,1.11022302462516E-16));
#1090=DIRECTION('ref_axis',(-5.39030285815812E-15,1.,-1.11022302462515E-16));
#1091=DIRECTION('',(1.11022302462515E-16,1.11022302462516E-16,1.));
#1092=DIRECTION('center_axis',(-1.,-5.39030285815812E-15,1.11022302462516E-16));
#1093=DIRECTION('ref_axis',(-5.39030285815812E-15,1.,-1.11022302462515E-16));
#1094=DIRECTION('',(-1.11022302462515E-16,-1.11022302462516E-16,-1.));
#1095=DIRECTION('center_axis',(1.11022302462516E-16,0.,1.));
#1096=DIRECTION('ref_axis',(1.,0.,-1.11022302462516E-16));
#1097=DIRECTION('',(1.,5.39030285815812E-15,-1.11022302462516E-16));
#1098=DIRECTION('center_axis',(-1.11022302462516E-16,0.,-1.));
#1099=DIRECTION('ref_axis',(2.18547839493141E-15,-1.,0.));
#1100=DIRECTION('center_axis',(1.11022302462516E-16,0.,1.));
#1101=DIRECTION('ref_axis',(-1.,-5.46369598732851E-15,0.));
#1102=DIRECTION('center_axis',(-1.11022302462516E-16,0.,-1.));
#1103=DIRECTION('ref_axis',(0.,-1.,0.));
#1104=DIRECTION('',(1.11022302462516E-16,1.40109175975983E-21,1.));
#1105=DIRECTION('center_axis',(1.11022302462516E-16,0.,1.));
#1106=DIRECTION('ref_axis',(-1.,-1.24299083711724E-14,0.));
#1107=DIRECTION('center_axis',(-1.11022302462515E-16,-1.11022302462516E-16,
-1.));
#1108=DIRECTION('ref_axis',(-5.39030285815812E-15,1.,-1.11022302462515E-16));
#1109=DIRECTION('',(-1.,-5.39030285815812E-15,1.11022302462516E-16));
#1110=DIRECTION('',(5.39030285815812E-15,-1.,1.11022302462515E-16));
#1111=DIRECTION('',(-1.,-5.39030285815812E-15,1.11022302462516E-16));
#1112=DIRECTION('center_axis',(1.11022302462515E-16,1.11022302462516E-16,
1.));
#1113=DIRECTION('ref_axis',(5.39030285815812E-15,-1.,1.11022302462515E-16));
#1114=DIRECTION('',(1.,5.39030285815812E-15,-1.11022302462516E-16));
#1115=DIRECTION('',(-5.39030285815812E-15,1.,-1.11022302462515E-16));
#1116=DIRECTION('center_axis',(-1.,5.39030285815812E-15,0.));
#1117=DIRECTION('ref_axis',(5.39030285815812E-15,1.,0.));
#1118=DIRECTION('',(0.,0.,1.));
#1119=DIRECTION('center_axis',(-1.,5.39030285815812E-15,0.));
#1120=DIRECTION('ref_axis',(5.39030285815812E-15,1.,6.16297582203915E-33));
#1121=DIRECTION('',(-3.3220306188297E-47,-6.16297582203915E-33,1.));
#1122=DIRECTION('center_axis',(-1.,5.39030285815812E-15,0.));
#1123=DIRECTION('ref_axis',(5.39030285815812E-15,1.,6.16297582203915E-33));
#1124=DIRECTION('',(3.3220306188297E-47,6.16297582203915E-33,-1.));
#1125=DIRECTION('center_axis',(1.45011195812686E-33,0.,-1.));
#1126=DIRECTION('ref_axis',(-1.,0.,-1.45011195812686E-33));
#1127=DIRECTION('',(0.,-1.,0.));
#1128=DIRECTION('',(-1.,0.,-1.45011195812686E-33));
#1129=DIRECTION('center_axis',(-1.11022302462516E-16,0.,-1.));
#1130=DIRECTION('ref_axis',(0.,-1.,0.));
#1131=DIRECTION('',(-1.11020901370756E-16,0.,-1.));
#1132=DIRECTION('center_axis',(-1.11022302462516E-16,0.,-1.));
#1133=DIRECTION('ref_axis',(1.31128703695885E-14,-1.,0.));
#1134=DIRECTION('',(-1.,-5.39030285815812E-15,1.11022302462516E-16));
#1135=DIRECTION('center_axis',(1.,5.39030285815812E-15,-1.11022302462516E-16));
#1136=DIRECTION('ref_axis',(5.39030285815812E-15,-1.,1.11022302462515E-16));
#1137=DIRECTION('',(-1.11022302462515E-16,-1.11022302462516E-16,-1.));
#1138=DIRECTION('center_axis',(1.,5.39030285815812E-15,-1.11022302462516E-16));
#1139=DIRECTION('ref_axis',(-5.39030285815812E-15,1.,-1.11022302462515E-16));
#1140=DIRECTION('',(1.11022302462515E-16,1.11022302462516E-16,1.));
#1141=DIRECTION('center_axis',(1.,5.39030285815812E-15,-1.11022302462516E-16));
#1142=DIRECTION('ref_axis',(-5.39030285815812E-15,1.,-1.11022302462515E-16));
#1143=DIRECTION('',(-1.11022302462515E-16,-1.11022302462516E-16,-1.));
#1144=DIRECTION('center_axis',(-5.39030285815812E-15,1.,-1.11022302462515E-16));
#1145=DIRECTION('ref_axis',(1.11022302462515E-16,1.11022302462516E-16,1.));
#1146=DIRECTION('',(1.,5.39030285815812E-15,-1.11022302462516E-16));
#1147=DIRECTION('',(-1.,5.39030285815812E-15,0.));
#1148=DIRECTION('center_axis',(5.39030285815812E-15,1.,0.));
#1149=DIRECTION('ref_axis',(0.,0.,-1.));
#1150=DIRECTION('',(1.,-5.39030285815812E-15,0.));
#1151=DIRECTION('center_axis',(-1.,5.39030285815812E-15,0.));
#1152=DIRECTION('ref_axis',(5.39030285815812E-15,1.,6.16297582203915E-33));
#1153=DIRECTION('',(1.,-5.39030285815812E-15,0.));
#1154=DIRECTION('',(1.,-5.39030285815812E-15,0.));
#1155=DIRECTION('center_axis',(-5.39030285815812E-15,-1.,-6.16297582203915E-33));
#1156=DIRECTION('ref_axis',(3.3220306188297E-47,6.16297582203915E-33,-1.));
#1157=DIRECTION('',(1.,-5.39030285815812E-15,0.));
#1158=DIRECTION('center_axis',(-1.,5.39030285815812E-15,0.));
#1159=DIRECTION('ref_axis',(5.39030285815812E-15,1.,6.16297582203915E-33));
#1160=DIRECTION('',(1.,-5.39030285815812E-15,0.));
#1161=DIRECTION('center_axis',(5.39030285815812E-15,1.,6.16297582203915E-33));
#1162=DIRECTION('ref_axis',(-3.3220306188297E-47,-6.16297582203915E-33,
1.));
#1163=DIRECTION('center_axis',(-1.,-5.39030285815812E-15,1.11022302462516E-16));
#1164=DIRECTION('ref_axis',(-5.39030285815812E-15,1.,-1.11022302462515E-16));
#1165=DIRECTION('',(-1.,-5.39030285815812E-15,1.11022302462516E-16));
#1166=DIRECTION('',(-1.,-5.39030285815812E-15,1.11022302462516E-16));
#1167=DIRECTION('center_axis',(-5.39030285815812E-15,1.,-1.11022302462515E-16));
#1168=DIRECTION('ref_axis',(-1.11022302462515E-16,-1.11022302462516E-16,
-1.));
#1169=DIRECTION('',(-1.,-5.39030285815812E-15,1.11022302462516E-16));
#1170=DIRECTION('center_axis',(-1.,-5.39030285815812E-15,1.11022302462516E-16));
#1171=DIRECTION('ref_axis',(-5.39030285815812E-15,1.,-1.11022302462515E-16));
#1172=DIRECTION('',(-1.,-5.39030285815812E-15,1.11022302462516E-16));
#1173=DIRECTION('center_axis',(5.39030285815812E-15,-1.,1.11022302462515E-16));
#1174=DIRECTION('ref_axis',(1.11022302462515E-16,1.11022302462516E-16,1.));
#1175=DIRECTION('center_axis',(1.,0.,0.));
#1176=DIRECTION('ref_axis',(0.,0.,1.));
#1177=DIRECTION('',(0.,-1.,0.));
#1178=DIRECTION('',(0.,0.,1.));
#1179=DIRECTION('',(0.,-1.,0.));
#1180=DIRECTION('center_axis',(0.,-1.,0.));
#1181=DIRECTION('ref_axis',(-1.,0.,0.));
#1182=DIRECTION('center_axis',(0.,-1.,0.));
#1183=DIRECTION('ref_axis',(-1.,0.,0.));
#1184=DIRECTION('',(0.,-1.,0.));
#1185=DIRECTION('center_axis',(-5.86532918669894E-17,0.,-1.));
#1186=DIRECTION('ref_axis',(1.,0.,-5.86532918669894E-17));
#1187=DIRECTION('',(1.,0.,-5.86532918669894E-17));
#1188=DIRECTION('',(0.,-1.,0.));
#1189=DIRECTION('center_axis',(0.,-1.,0.));
#1190=DIRECTION('ref_axis',(-1.,0.,0.));
#1191=DIRECTION('center_axis',(0.,-1.,0.));
#1192=DIRECTION('ref_axis',(-1.,0.,0.));
#1193=DIRECTION('',(0.,-1.,0.));
#1194=DIRECTION('center_axis',(-1.,0.,0.));
#1195=DIRECTION('ref_axis',(0.,0.,-1.));
#1196=DIRECTION('',(0.,0.,-1.));
#1197=DIRECTION('',(0.,-1.,0.));
#1198=DIRECTION('center_axis',(0.,-1.,0.));
#1199=DIRECTION('ref_axis',(-1.,0.,0.));
#1200=DIRECTION('center_axis',(0.,-1.,0.));
#1201=DIRECTION('ref_axis',(-1.,0.,0.));
#1202=DIRECTION('',(0.,-1.,0.));
#1203=DIRECTION('center_axis',(-6.70323335622736E-17,0.,1.));
#1204=DIRECTION('ref_axis',(-1.,0.,-6.70323335622736E-17));
#1205=DIRECTION('',(-1.,0.,-6.70323335622736E-17));
#1206=DIRECTION('',(0.,-1.,0.));
#1207=DIRECTION('center_axis',(0.,-1.,0.));
#1208=DIRECTION('ref_axis',(-1.,0.,0.));
#1209=DIRECTION('center_axis',(0.,-1.,0.));
#1210=DIRECTION('ref_axis',(-1.,0.,0.));
#1211=DIRECTION('center_axis',(0.,1.,0.));
#1212=DIRECTION('ref_axis',(-1.,0.,-1.22464679914735E-16));
#1213=DIRECTION('',(0.,1.,0.));
#1214=DIRECTION('center_axis',(0.,-1.,0.));
#1215=DIRECTION('ref_axis',(1.,0.,0.));
#1216=DIRECTION('',(0.,1.,0.));
#1217=DIRECTION('center_axis',(-6.55482228560978E-17,0.,-1.));
#1218=DIRECTION('ref_axis',(-1.,0.,6.55482228560978E-17));
#1219=DIRECTION('',(-1.,0.,6.55482228560978E-17));
#1220=DIRECTION('',(0.,1.,0.));
#1221=DIRECTION('center_axis',(0.,1.,0.));
#1222=DIRECTION('ref_axis',(1.,0.,0.));
#1223=DIRECTION('center_axis',(0.,-1.,0.));
#1224=DIRECTION('ref_axis',(1.,0.,0.));
#1225=DIRECTION('',(0.,1.,0.));
#1226=DIRECTION('center_axis',(0.,0.,1.));
#1227=DIRECTION('ref_axis',(1.,0.,0.));
#1228=DIRECTION('',(1.,0.,0.));
#1229=DIRECTION('center_axis',(8.19352785701223E-18,0.,-1.));
#1230=DIRECTION('ref_axis',(-1.,0.,-8.19352785701223E-18));
#1231=DIRECTION('',(0.,1.,0.));
#1232=DIRECTION('',(-1.,0.,-8.19352785701223E-18));
#1233=DIRECTION('',(0.,1.,0.));
#1234=DIRECTION('center_axis',(0.,1.,0.));
#1235=DIRECTION('ref_axis',(1.,0.,0.));
#1236=DIRECTION('center_axis',(0.,-1.,0.));
#1237=DIRECTION('ref_axis',(1.,0.,0.));
#1238=DIRECTION('',(0.,1.,0.));
#1239=DIRECTION('center_axis',(-4.09676392850611E-18,0.,1.));
#1240=DIRECTION('ref_axis',(1.,0.,4.09676392850611E-18));
#1241=DIRECTION('',(1.,0.,4.09676392850611E-18));
#1242=DIRECTION('',(0.,1.,0.));
#1243=DIRECTION('center_axis',(0.,1.,0.));
#1244=DIRECTION('ref_axis',(-1.,0.,-1.22464679914735E-16));
#1245=DIRECTION('center_axis',(0.,-1.,0.));
#1246=DIRECTION('ref_axis',(1.,0.,0.));
#1247=DIRECTION('center_axis',(-1.11022302462516E-16,0.,-1.));
#1248=DIRECTION('ref_axis',(-1.,0.,1.11022302462516E-16));
#1249=DIRECTION('center_axis',(0.,0.,1.));
#1250=DIRECTION('ref_axis',(1.,0.,0.));
#1251=DIRECTION('center_axis',(0.,1.,0.));
#1252=DIRECTION('ref_axis',(1.,0.,0.));
#1253=CARTESIAN_POINT('',(0.,0.,0.));
#1254=CARTESIAN_POINT('Origin',(311.015999999999,-140.266137857954,60.));
#1255=CARTESIAN_POINT('',(311.016,2.03199999999999,4.5286726420857E-31));
#1256=CARTESIAN_POINT('',(311.016,2.03199999999999,120.));
#1257=CARTESIAN_POINT('',(311.016,2.03199999999999,30.));
#1258=CARTESIAN_POINT('',(311.016,24.733862142046,120.));
#1259=CARTESIAN_POINT('',(311.016,29.733862142046,120.));
#1260=CARTESIAN_POINT('',(311.016,29.733862142046,115.));
#1261=CARTESIAN_POINT('Ctrl Pts',(311.016,29.733862142046,115.));
#1262=CARTESIAN_POINT('Ctrl Pts',(311.016,29.733862142046,115.373999125427));
#1263=CARTESIAN_POINT('Ctrl Pts',(311.016,29.731958874585,115.744034678936));
#1264=CARTESIAN_POINT('Ctrl Pts',(311.016,29.6900300531583,116.112667822043));
#1265=CARTESIAN_POINT('Ctrl Pts',(311.016,29.6481012317316,116.48130096515));
#1266=CARTESIAN_POINT('Ctrl Pts',(311.016,29.5661468563392,116.848531697856));
#1267=CARTESIAN_POINT('Ctrl Pts',(311.016,29.4271158048243,117.207355731905));
#1268=CARTESIAN_POINT('Ctrl Pts',(311.016,29.2880847533094,117.566179765954));
#1269=CARTESIAN_POINT('Ctrl Pts',(311.016,29.0919770256721,117.916597101346));
#1270=CARTESIAN_POINT('Ctrl Pts',(311.016,28.8447635005033,118.241037442216));
#1271=CARTESIAN_POINT('Ctrl Pts',(311.016,28.5975499753345,118.565477783085));
#1272=CARTESIAN_POINT('Ctrl Pts',(311.016,28.2992306526343,118.863941129431));
#1273=CARTESIAN_POINT('Ctrl Pts',(311.016,27.9749292085063,119.11100819762));
#1274=CARTESIAN_POINT('Ctrl Pts',(311.016,27.6506277643784,119.358075265809));
#1275=CARTESIAN_POINT('Ctrl Pts',(311.016,27.3003441988227,119.553746055841));
#1276=CARTESIAN_POINT('Ctrl Pts',(311.016,26.94152794542,119.692715626078));
#1277=CARTESIAN_POINT('Ctrl Pts',(311.016,26.5827116920172,119.831685196315));
#1278=CARTESIAN_POINT('Ctrl Pts',(311.016,26.2153627507674,119.913953546757));
#1279=CARTESIAN_POINT('Ctrl Pts',(311.016,25.8466501446314,119.956032247678));
#1280=CARTESIAN_POINT('Ctrl Pts',(311.016,25.4779375384955,119.9981109486));
#1281=CARTESIAN_POINT('Ctrl Pts',(311.016,25.1078612674733,120.));
#1282=CARTESIAN_POINT('Ctrl Pts',(311.016,24.733862142046,120.));
#1283=CARTESIAN_POINT('',(311.016,29.733862142046,5.));
#1284=CARTESIAN_POINT('',(311.016,29.733862142046,4.93038065763132E-31));
#1285=CARTESIAN_POINT('',(311.016,24.733862142046,4.85787505972498E-31));
#1286=CARTESIAN_POINT('Ctrl Pts',(311.016,24.733862142046,0.));
#1287=CARTESIAN_POINT('Ctrl Pts',(311.016,25.1078612674733,0.));
#1288=CARTESIAN_POINT('Ctrl Pts',(311.016,25.477897486804,0.00190311771112681));
#1289=CARTESIAN_POINT('Ctrl Pts',(311.016,25.8465311028252,0.0438319806548799));
#1290=CARTESIAN_POINT('Ctrl Pts',(311.016,26.2151647188463,0.0857608435986329));
#1291=CARTESIAN_POINT('Ctrl Pts',(311.016,26.582395731558,0.167715451775012));
#1292=CARTESIAN_POINT('Ctrl Pts',(311.016,26.9412200542526,0.306746573147352));
#1293=CARTESIAN_POINT('Ctrl Pts',(311.016,27.3000443769471,0.445777694519691));
#1294=CARTESIAN_POINT('Ctrl Pts',(311.016,27.6504620096245,0.64188532908799));
#1295=CARTESIAN_POINT('Ctrl Pts',(311.016,27.9749025884915,0.889098959424964));
#1296=CARTESIAN_POINT('Ctrl Pts',(311.016,28.2993431673586,1.13631258976194));
#1297=CARTESIAN_POINT('Ctrl Pts',(311.016,28.5978066924153,1.43463221586759));
#1298=CARTESIAN_POINT('Ctrl Pts',(311.016,28.8448739526594,1.75893391610947));
#1299=CARTESIAN_POINT('Ctrl Pts',(311.016,29.0919412129034,2.08323561635135));
#1300=CARTESIAN_POINT('Ctrl Pts',(311.016,29.2876122083348,2.43351939072947));
#1301=CARTESIAN_POINT('Ctrl Pts',(311.016,29.4265817367288,2.79233569117747));
#1302=CARTESIAN_POINT('Ctrl Pts',(311.016,29.5655512651229,3.15115199162547));
#1303=CARTESIAN_POINT('Ctrl Pts',(311.016,29.6478193264796,3.51850081814337));
#1304=CARTESIAN_POINT('Ctrl Pts',(311.016,29.6898970457104,3.88721303888016));
#1305=CARTESIAN_POINT('Ctrl Pts',(311.016,29.7319747649411,4.25592525961695));
#1306=CARTESIAN_POINT('Ctrl Pts',(311.016,29.733862142046,4.62600087457264));
#1307=CARTESIAN_POINT('Ctrl Pts',(311.016,29.733862142046,5.));
#1308=CARTESIAN_POINT('',(311.015999999998,-310.266137857954,0.));
#1309=CARTESIAN_POINT('',(311.016,16.733862142046,7.5));
#1310=CARTESIAN_POINT('',(311.016,22.733862142046,7.5));
#1311=CARTESIAN_POINT('Origin',(311.016,19.733862142046,7.5));
#1312=CARTESIAN_POINT('',(311.016,22.733862142046,112.5));
#1313=CARTESIAN_POINT('',(311.016,22.733862142046,86.25));
#1314=CARTESIAN_POINT('',(311.016,16.733862142046,112.5));
#1315=CARTESIAN_POINT('Origin',(311.016,19.733862142046,112.5));
#1316=CARTESIAN_POINT('',(311.016,16.733862142046,33.75));
#1317=CARTESIAN_POINT('Origin',(312.032,2.03199999999999,0.));
#1318=CARTESIAN_POINT('',(312.032,2.03199999999999,4.5286726420857E-31));
#1319=CARTESIAN_POINT('',(312.032,2.03199999999999,4.5286726420857E-31));
#1320=CARTESIAN_POINT('',(310.,0.,4.49534707019327E-31));
#1321=CARTESIAN_POINT('Origin',(310.,2.032,0.));
#1322=CARTESIAN_POINT('',(310.,1.016,4.49534707019327E-31));
#1323=CARTESIAN_POINT('',(310.,0.,4.49534707019327E-31));
#1324=CARTESIAN_POINT('Origin',(310.,2.032,0.));
#1325=CARTESIAN_POINT('Origin',(310.,2.032,60.));
#1326=CARTESIAN_POINT('',(312.032,2.03199999999999,120.));
#1327=CARTESIAN_POINT('',(312.032,2.03199999999999,30.));
#1328=CARTESIAN_POINT('',(310.,0.,120.));
#1329=CARTESIAN_POINT('Origin',(310.,2.032,120.));
#1330=CARTESIAN_POINT('',(310.,0.,30.));
#1331=CARTESIAN_POINT('Origin',(312.031999999998,-310.266137857954,120.));
#1332=CARTESIAN_POINT('',(312.032,2.03199999999999,120.));
#1333=CARTESIAN_POINT('',(312.032,24.733862142046,120.));
#1334=CARTESIAN_POINT('',(312.032,29.733862142046,120.));
#1335=CARTESIAN_POINT('',(312.032,24.733862142046,120.));
#1336=CARTESIAN_POINT('Origin',(312.032,29.733862142046,4.93038065763132E-31));
#1337=CARTESIAN_POINT('',(312.032,24.733862142046,4.85787505972498E-31));
#1338=CARTESIAN_POINT('',(312.032,24.733862142046,0.));
#1339=CARTESIAN_POINT('',(312.031999999998,-310.266137857954,0.));
#1340=CARTESIAN_POINT('Origin',(170.,0.,60.));
#1341=CARTESIAN_POINT('',(30.,0.,120.));
#1342=CARTESIAN_POINT('',(340.,0.,120.));
#1343=CARTESIAN_POINT('',(30.,0.,4.35033587438058E-32));
#1344=CARTESIAN_POINT('',(30.,0.,30.));
#1345=CARTESIAN_POINT('',(0.,0.,0.));
#1346=CARTESIAN_POINT('',(305.5,0.,102.));
#1347=CARTESIAN_POINT('',(305.5,0.,18.));
#1348=CARTESIAN_POINT('',(305.5,0.,39.));
#1349=CARTESIAN_POINT('',(302.5,0.,15.));
#1350=CARTESIAN_POINT('Origin',(302.5,0.,18.));
#1351=CARTESIAN_POINT('',(37.5,0.,15.));
#1352=CARTESIAN_POINT('',(103.75,0.,15.));
#1353=CARTESIAN_POINT('',(34.5,0.,18.));
#1354=CARTESIAN_POINT('Origin',(37.5,0.,18.));
#1355=CARTESIAN_POINT('',(34.5,0.,102.));
#1356=CARTESIAN_POINT('',(34.5,0.,81.));
#1357=CARTESIAN_POINT('',(37.5,0.,105.));
#1358=CARTESIAN_POINT('Origin',(37.5,0.,102.));
#1359=CARTESIAN_POINT('',(302.5,0.,105.));
#1360=CARTESIAN_POINT('',(236.25,0.,105.));
#1361=CARTESIAN_POINT('Origin',(302.5,0.,102.));
#1362=CARTESIAN_POINT('',(37.5,0.,10.5));
#1363=CARTESIAN_POINT('',(37.5,0.,4.5));
#1364=CARTESIAN_POINT('Origin',(37.5,0.,7.5));
#1365=CARTESIAN_POINT('',(302.500000114043,0.,10.5));
#1366=CARTESIAN_POINT('',(305.5,0.,10.5));
#1367=CARTESIAN_POINT('',(302.499999885957,0.,4.5));
#1368=CARTESIAN_POINT('Origin',(302.5,0.,7.5));
#1369=CARTESIAN_POINT('',(34.5,0.,4.5));
#1370=CARTESIAN_POINT('',(37.5,0.,109.5));
#1371=CARTESIAN_POINT('',(302.5,0.,109.5));
#1372=CARTESIAN_POINT('',(305.5,0.,109.5));
#1373=CARTESIAN_POINT('',(37.5,0.,115.5));
#1374=CARTESIAN_POINT('Origin',(37.5,0.,112.5));
#1375=CARTESIAN_POINT('',(302.499999786692,0.,115.5));
#1376=CARTESIAN_POINT('',(34.5,0.,115.5));
#1377=CARTESIAN_POINT('Origin',(302.5,0.,112.5));
#1378=CARTESIAN_POINT('Origin',(0.,0.,120.));
#1379=CARTESIAN_POINT('',(310.,1.016,120.));
#1380=CARTESIAN_POINT('',(310.,0.,120.));
#1381=CARTESIAN_POINT('',(30.,1.016,120.));
#1382=CARTESIAN_POINT('',(340.,1.016,120.));
#1383=CARTESIAN_POINT('',(30.,0.,120.));
#1384=CARTESIAN_POINT('Origin',(310.,2.032,60.));
#1385=CARTESIAN_POINT('',(310.,1.016,30.));
#1386=CARTESIAN_POINT('Origin',(310.,2.032,120.));
#1387=CARTESIAN_POINT('Origin',(28.9840000000008,-140.266137857954,60.));
#1388=CARTESIAN_POINT('',(28.984,2.03199999999999,120.));
#1389=CARTESIAN_POINT('',(28.984,2.03199999999998,2.96272585820721E-15));
#1390=CARTESIAN_POINT('',(28.984,2.03199999999998,30.));
#1391=CARTESIAN_POINT('',(28.9839999999999,24.733862142046,4.42312853010659E-16));
#1392=CARTESIAN_POINT('',(28.9839999999998,29.733862142046,-1.12798659301916E-16));
#1393=CARTESIAN_POINT('',(28.9839999999998,29.733862142046,5.));
#1394=CARTESIAN_POINT('Ctrl Pts',(28.9839999999998,29.733862142046,5.));
#1395=CARTESIAN_POINT('Ctrl Pts',(28.9839999999998,29.733862142046,4.62600087457264));
#1396=CARTESIAN_POINT('Ctrl Pts',(28.9839999999998,29.7319624414463,4.2559575025761));
#1397=CARTESIAN_POINT('Ctrl Pts',(28.9839999999998,29.6900333598319,3.88731825165611));
#1398=CARTESIAN_POINT('Ctrl Pts',(28.9839999999998,29.6481042782174,3.51867900073611));
#1399=CARTESIAN_POINT('Ctrl Pts',(28.9839999999998,29.5661458155883,3.15144387089266));
#1400=CARTESIAN_POINT('Ctrl Pts',(28.9839999999998,29.4271138522492,2.79261590536674));
#1401=CARTESIAN_POINT('Ctrl Pts',(28.9839999999998,29.2880818889101,2.43378793984083));
#1402=CARTESIAN_POINT('Ctrl Pts',(28.9839999999998,29.0919764248611,2.08336713863244));
#1403=CARTESIAN_POINT('Ctrl Pts',(28.9839999999998,28.8447612809438,1.75892312605772));
#1404=CARTESIAN_POINT('Ctrl Pts',(28.9839999999999,28.5975461370265,1.434479113483));
#1405=CARTESIAN_POINT('Ctrl Pts',(28.9839999999999,28.299221313241,1.13601188954194));
#1406=CARTESIAN_POINT('Ctrl Pts',(28.9839999999999,27.9749152251096,0.888940760099664));
#1407=CARTESIAN_POINT('Ctrl Pts',(28.9839999999999,27.6506091369782,0.641869630657385));
#1408=CARTESIAN_POINT('Ctrl Pts',(28.9839999999999,27.3003217845008,0.446194595713882));
#1409=CARTESIAN_POINT('Ctrl Pts',(28.9839999999999,26.9415045011337,0.30722498577861));
#1410=CARTESIAN_POINT('Ctrl Pts',(28.9839999999999,26.5826872177666,0.168255375843337));
#1411=CARTESIAN_POINT('Ctrl Pts',(28.9839999999999,26.2153400035097,0.0859911909162957));
#1412=CARTESIAN_POINT('Ctrl Pts',(28.9839999999999,25.8466335159364,0.043927346955452));
#1413=CARTESIAN_POINT('Ctrl Pts',(28.9839999999999,25.477927028363,0.00186350299460821));
#1414=CARTESIAN_POINT('Ctrl Pts',(28.9839999999999,25.1078612674733,-3.78921431269201E-14));
#1415=CARTESIAN_POINT('Ctrl Pts',(28.9839999999999,24.7338621420459,-3.99593552691258E-14));
#1416=CARTESIAN_POINT('',(28.9839999999998,29.733862142046,115.));
#1417=CARTESIAN_POINT('',(28.9839999999998,29.733862142046,120.));
#1418=CARTESIAN_POINT('',(28.9839999999999,24.733862142046,120.));
#1419=CARTESIAN_POINT('Ctrl Pts',(28.9839999999999,24.733862142046,120.));
#1420=CARTESIAN_POINT('Ctrl Pts',(28.9839999999999,25.1078612674733,120.));
#1421=CARTESIAN_POINT('Ctrl Pts',(28.9839999999999,25.4778997607484,119.99809753269));
#1422=CARTESIAN_POINT('Ctrl Pts',(28.9839999999999,25.8465350345999,119.956168546595));
#1423=CARTESIAN_POINT('Ctrl Pts',(28.9839999999999,26.2151703084514,119.9142395605));
#1424=CARTESIAN_POINT('Ctrl Pts',(28.9839999999999,26.5824023628793,119.83228405562));
#1425=CARTESIAN_POINT('Ctrl Pts',(28.9839999999999,26.9412277147141,119.693252687926));
#1426=CARTESIAN_POINT('Ctrl Pts',(28.9839999999999,27.3000530665487,119.554221320232));
#1427=CARTESIAN_POINT('Ctrl Pts',(28.9839999999999,27.6504717157901,119.358114089725));
#1428=CARTESIAN_POINT('Ctrl Pts',(28.9839999999999,27.9749131772821,119.110900068752));
#1429=CARTESIAN_POINT('Ctrl Pts',(28.9839999999999,28.299354638774,118.863686047778));
#1430=CARTESIAN_POINT('Ctrl Pts',(28.9839999999999,28.5978189125165,118.565365236337));
#1431=CARTESIAN_POINT('Ctrl Pts',(28.9839999999999,28.8448869678459,118.24106253546));
#1432=CARTESIAN_POINT('Ctrl Pts',(28.9839999999999,29.0919550231753,117.916759834582));
#1433=CARTESIAN_POINT('Ctrl Pts',(28.9839999999999,29.2876268600915,117.566475244267));
#1434=CARTESIAN_POINT('Ctrl Pts',(28.9839999999999,29.4265962846506,117.207658747061));
#1435=CARTESIAN_POINT('Ctrl Pts',(28.9839999999999,29.5655657092096,116.848842249855));
#1436=CARTESIAN_POINT('Ctrl Pts',(28.9839999999999,29.6478327214113,116.481493845758));
#1437=CARTESIAN_POINT('Ctrl Pts',(28.9839999999999,29.6899068296204,116.112783064651));
#1438=CARTESIAN_POINT('Ctrl Pts',(28.9839999999999,29.7319809378295,115.744072283544));
#1439=CARTESIAN_POINT('Ctrl Pts',(28.9839999999998,29.733862142046,115.373999125427));
#1440=CARTESIAN_POINT('Ctrl Pts',(28.9839999999998,29.733862142046,115.));
#1441=CARTESIAN_POINT('',(28.9840000000017,-310.266137857954,120.));
#1442=CARTESIAN_POINT('',(28.9839999999999,22.733862142046,7.5));
#1443=CARTESIAN_POINT('',(28.9839999999999,16.733862142046,7.5));
#1444=CARTESIAN_POINT('Origin',(28.9839999999999,19.733862142046,7.5));
#1445=CARTESIAN_POINT('',(28.9839999999999,16.733862142046,112.5));
#1446=CARTESIAN_POINT('',(28.9839999999999,16.733862142046,33.75));
#1447=CARTESIAN_POINT('',(28.9839999999999,22.733862142046,112.5));
#1448=CARTESIAN_POINT('Origin',(28.9839999999999,19.733862142046,112.5));
#1449=CARTESIAN_POINT('',(28.9839999999999,22.733862142046,86.25));
#1450=CARTESIAN_POINT('Origin',(27.968,2.03199999999999,120.));
#1451=CARTESIAN_POINT('',(27.968,2.03199999999998,120.));
#1452=CARTESIAN_POINT('',(27.968,2.03199999999998,120.));
#1453=CARTESIAN_POINT('Origin',(30.,2.032,120.));
#1454=CARTESIAN_POINT('Origin',(30.,2.032,120.));
#1455=CARTESIAN_POINT('Origin',(30.,2.032,60.));
#1456=CARTESIAN_POINT('',(27.968,2.03199999999998,3.07552451750913E-15));
#1457=CARTESIAN_POINT('',(27.968,2.03199999999998,30.));
#1458=CARTESIAN_POINT('Origin',(30.,2.032,0.));
#1459=CARTESIAN_POINT('Origin',(27.9680000000017,-310.266137857954,3.77475828372551E-14));
#1460=CARTESIAN_POINT('',(27.968,2.03199999999997,3.07552451750913E-15));
#1461=CARTESIAN_POINT('',(27.9679999999999,24.733862142046,5.55111512312575E-16));
#1462=CARTESIAN_POINT('',(27.9679999999998,29.733862142046,0.));
#1463=CARTESIAN_POINT('',(27.9679999999999,24.733862142046,5.55111512312575E-16));
#1464=CARTESIAN_POINT('Origin',(27.9679999999998,29.733862142046,120.));
#1465=CARTESIAN_POINT('',(27.9679999999999,24.733862142046,120.));
#1466=CARTESIAN_POINT('',(27.9679999999999,24.733862142046,120.));
#1467=CARTESIAN_POINT('',(27.9680000000017,-310.266137857954,120.));
#1468=CARTESIAN_POINT('Origin',(312.031999999999,-140.266137857954,60.));
#1469=CARTESIAN_POINT('',(312.032,29.733862142046,5.));
#1470=CARTESIAN_POINT('Ctrl Pts',(312.032,29.733862142046,5.));
#1471=CARTESIAN_POINT('Ctrl Pts',(312.032,29.733862142046,4.62600087457264));
#1472=CARTESIAN_POINT('Ctrl Pts',(312.032,29.7319747649411,4.25592525961695));
#1473=CARTESIAN_POINT('Ctrl Pts',(312.032,29.6898970457104,3.88721303888016));
#1474=CARTESIAN_POINT('Ctrl Pts',(312.032,29.6478193264796,3.51850081814337));
#1475=CARTESIAN_POINT('Ctrl Pts',(312.032,29.5655512651229,3.15115199162547));
#1476=CARTESIAN_POINT('Ctrl Pts',(312.032,29.4265817367288,2.79233569117747));
#1477=CARTESIAN_POINT('Ctrl Pts',(312.032,29.2876122083348,2.43351939072947));
#1478=CARTESIAN_POINT('Ctrl Pts',(312.032,29.0919412129034,2.08323561635135));
#1479=CARTESIAN_POINT('Ctrl Pts',(312.032,28.8448739526593,1.75893391610947));
#1480=CARTESIAN_POINT('Ctrl Pts',(312.032,28.5978066924153,1.43463221586759));
#1481=CARTESIAN_POINT('Ctrl Pts',(312.032,28.2993431673586,1.13631258976194));
#1482=CARTESIAN_POINT('Ctrl Pts',(312.032,27.9749025884915,0.889098959424965));
#1483=CARTESIAN_POINT('Ctrl Pts',(312.032,27.6504620096245,0.64188532908799));
#1484=CARTESIAN_POINT('Ctrl Pts',(312.032,27.3000443769471,0.445777694519691));
#1485=CARTESIAN_POINT('Ctrl Pts',(312.032,26.9412200542526,0.306746573147351));
#1486=CARTESIAN_POINT('Ctrl Pts',(312.032,26.582395731558,0.167715451775012));
#1487=CARTESIAN_POINT('Ctrl Pts',(312.032,26.2151647188463,0.0857608435986329));
#1488=CARTESIAN_POINT('Ctrl Pts',(312.032,25.8465311028252,0.0438319806548799));
#1489=CARTESIAN_POINT('Ctrl Pts',(312.032,25.477897486804,0.0019031177111268));
#1490=CARTESIAN_POINT('Ctrl Pts',(312.032,25.1078612674733,0.));
#1491=CARTESIAN_POINT('Ctrl Pts',(312.032,24.733862142046,0.));
#1492=CARTESIAN_POINT('',(312.032,29.733862142046,115.));
#1493=CARTESIAN_POINT('',(312.032,29.733862142046,4.93038065763132E-31));
#1494=CARTESIAN_POINT('Ctrl Pts',(312.032,24.733862142046,120.));
#1495=CARTESIAN_POINT('Ctrl Pts',(312.032,25.1078612674733,120.));
#1496=CARTESIAN_POINT('Ctrl Pts',(312.032,25.4779375384955,119.9981109486));
#1497=CARTESIAN_POINT('Ctrl Pts',(312.032,25.8466501446314,119.956032247678));
#1498=CARTESIAN_POINT('Ctrl Pts',(312.032,26.2153627507674,119.913953546757));
#1499=CARTESIAN_POINT('Ctrl Pts',(312.032,26.5827116920172,119.831685196315));
#1500=CARTESIAN_POINT('Ctrl Pts',(312.032,26.94152794542,119.692715626078));
#1501=CARTESIAN_POINT('Ctrl Pts',(312.032,27.3003441988227,119.553746055841));
#1502=CARTESIAN_POINT('Ctrl Pts',(312.032,27.6506277643784,119.358075265809));
#1503=CARTESIAN_POINT('Ctrl Pts',(312.032,27.9749292085063,119.11100819762));
#1504=CARTESIAN_POINT('Ctrl Pts',(312.032,28.2992306526343,118.863941129431));
#1505=CARTESIAN_POINT('Ctrl Pts',(312.032,28.5975499753345,118.565477783085));
#1506=CARTESIAN_POINT('Ctrl Pts',(312.032,28.8447635005033,118.241037442216));
#1507=CARTESIAN_POINT('Ctrl Pts',(312.032,29.0919770256721,117.916597101346));
#1508=CARTESIAN_POINT('Ctrl Pts',(312.032,29.2880847533094,117.566179765954));
#1509=CARTESIAN_POINT('Ctrl Pts',(312.032,29.4271158048243,117.207355731905));
#1510=CARTESIAN_POINT('Ctrl Pts',(312.032,29.5661468563392,116.848531697856));
#1511=CARTESIAN_POINT('Ctrl Pts',(312.032,29.6481012317316,116.48130096515));
#1512=CARTESIAN_POINT('Ctrl Pts',(312.032,29.6900300531583,116.112667822043));
#1513=CARTESIAN_POINT('Ctrl Pts',(312.032,29.731958874585,115.744034678936));
#1514=CARTESIAN_POINT('Ctrl Pts',(312.032,29.733862142046,115.373999125427));
#1515=CARTESIAN_POINT('Ctrl Pts',(312.032,29.733862142046,115.));
#1516=CARTESIAN_POINT('',(312.032,22.733862142046,7.5));
#1517=CARTESIAN_POINT('',(312.032,16.733862142046,7.5));
#1518=CARTESIAN_POINT('Origin',(312.032,19.733862142046,7.5));
#1519=CARTESIAN_POINT('',(312.032,16.733862142046,112.5));
#1520=CARTESIAN_POINT('',(312.032,16.733862142046,33.75));
#1521=CARTESIAN_POINT('',(312.032,22.733862142046,112.5));
#1522=CARTESIAN_POINT('Origin',(312.032,19.733862142046,112.5));
#1523=CARTESIAN_POINT('',(312.032,22.733862142046,86.25));
#1524=CARTESIAN_POINT('Origin',(340.,0.,4.93038065763132E-31));
#1525=CARTESIAN_POINT('',(30.,1.016,4.35033587438058E-32));
#1526=CARTESIAN_POINT('',(30.,0.,0.));
#1527=CARTESIAN_POINT('',(0.,1.016,0.));
#1528=CARTESIAN_POINT('Origin',(30.,2.032,60.));
#1529=CARTESIAN_POINT('',(30.,1.016,30.));
#1530=CARTESIAN_POINT('Origin',(30.,2.032,0.));
#1531=CARTESIAN_POINT('Ctrl Pts',(27.9679999999999,24.733862142046,120.));
#1532=CARTESIAN_POINT('Ctrl Pts',(28.3066666666665,24.733862142046,120.));
#1533=CARTESIAN_POINT('Ctrl Pts',(28.6453333333332,24.733862142046,120.));
#1534=CARTESIAN_POINT('Ctrl Pts',(28.9839999999999,24.733862142046,120.));
#1535=CARTESIAN_POINT('Ctrl Pts',(27.9679999999999,25.1078612674733,120.));
#1536=CARTESIAN_POINT('Ctrl Pts',(28.3066666666665,25.1078612674733,120.));
#1537=CARTESIAN_POINT('Ctrl Pts',(28.6453333333332,25.1078612674733,120.));
#1538=CARTESIAN_POINT('Ctrl Pts',(28.9839999999999,25.1078612674733,120.));
#1539=CARTESIAN_POINT('Ctrl Pts',(27.9679999999999,25.8479382540233,119.996195065381));
#1540=CARTESIAN_POINT('Ctrl Pts',(28.3066666666665,25.8479382540233,119.996195065381));
#1541=CARTESIAN_POINT('Ctrl Pts',(28.6453333333332,25.8479382540234,119.996195065381));
#1542=CARTESIAN_POINT('Ctrl Pts',(28.9839999999999,25.8479382540234,119.996195065381));
#1543=CARTESIAN_POINT('Ctrl Pts',(27.9679999999999,26.9496344173073,119.750328550739));
#1544=CARTESIAN_POINT('Ctrl Pts',(28.3066666666666,26.9496344173073,119.750328550739));
#1545=CARTESIAN_POINT('Ctrl Pts',(28.6453333333332,26.9496344173074,119.750328550739));
#1546=CARTESIAN_POINT('Ctrl Pts',(28.9839999999999,26.9496344173074,119.750328550739));
#1547=CARTESIAN_POINT('Ctrl Pts',(27.9679999999999,28.0008903650315,119.162006859218));
#1548=CARTESIAN_POINT('Ctrl Pts',(28.3066666666665,28.0008903650315,119.162006859218));
#1549=CARTESIAN_POINT('Ctrl Pts',(28.6453333333332,28.0008903650315,119.162006859218));
#1550=CARTESIAN_POINT('Ctrl Pts',(28.9839999999999,28.0008903650315,119.162006859218));
#1551=CARTESIAN_POINT('Ctrl Pts',(27.9679999999999,28.896283186259,118.267044424897));
#1552=CARTESIAN_POINT('Ctrl Pts',(28.3066666666665,28.896283186259,118.267044424897));
#1553=CARTESIAN_POINT('Ctrl Pts',(28.6453333333332,28.896283186259,118.267044424897));
#1554=CARTESIAN_POINT('Ctrl Pts',(28.9839999999999,28.896283186259,118.267044424897));
#1555=CARTESIAN_POINT('Ctrl Pts',(27.9679999999999,29.4832986970078,117.216190653952));
#1556=CARTESIAN_POINT('Ctrl Pts',(28.3066666666665,29.4832986970078,117.216190653952));
#1557=CARTESIAN_POINT('Ctrl Pts',(28.6453333333332,29.4832986970078,117.216190653952));
#1558=CARTESIAN_POINT('Ctrl Pts',(28.9839999999999,29.4832986970078,117.216190653952));
#1559=CARTESIAN_POINT('Ctrl Pts',(27.9679999999999,29.7300997336131,116.114145441662));
#1560=CARTESIAN_POINT('Ctrl Pts',(28.3066666666665,29.7300997336131,116.114145441662));
#1561=CARTESIAN_POINT('Ctrl Pts',(28.6453333333332,29.7300997336131,116.114145441662));
#1562=CARTESIAN_POINT('Ctrl Pts',(28.9839999999999,29.7300997336131,116.114145441662));
#1563=CARTESIAN_POINT('Ctrl Pts',(27.9679999999998,29.733862142046,115.373999125427));
#1564=CARTESIAN_POINT('Ctrl Pts',(28.3066666666665,29.733862142046,115.373999125427));
#1565=CARTESIAN_POINT('Ctrl Pts',(28.6453333333332,29.733862142046,115.373999125427));
#1566=CARTESIAN_POINT('Ctrl Pts',(28.9839999999998,29.733862142046,115.373999125427));
#1567=CARTESIAN_POINT('Ctrl Pts',(27.9679999999998,29.733862142046,115.));
#1568=CARTESIAN_POINT('Ctrl Pts',(28.3066666666665,29.733862142046,115.));
#1569=CARTESIAN_POINT('Ctrl Pts',(28.6453333333332,29.733862142046,115.));
#1570=CARTESIAN_POINT('Ctrl Pts',(28.9839999999998,29.733862142046,115.));
#1571=CARTESIAN_POINT('',(27.9679999999998,29.733862142046,115.));
#1572=CARTESIAN_POINT('',(27.9679999999998,29.733862142046,115.));
#1573=CARTESIAN_POINT('Ctrl Pts',(27.9679999999998,29.733862142046,115.));
#1574=CARTESIAN_POINT('Ctrl Pts',(27.9679999999998,29.733862142046,115.373999125427));
#1575=CARTESIAN_POINT('Ctrl Pts',(27.9679999999999,29.7319809378295,115.744072283544));
#1576=CARTESIAN_POINT('Ctrl Pts',(27.9679999999999,29.6899068296204,116.112783064651));
#1577=CARTESIAN_POINT('Ctrl Pts',(27.9679999999999,29.6478327214113,116.481493845758));
#1578=CARTESIAN_POINT('Ctrl Pts',(27.9679999999999,29.5655657092096,116.848842249855));
#1579=CARTESIAN_POINT('Ctrl Pts',(27.9679999999999,29.4265962846506,117.207658747061));
#1580=CARTESIAN_POINT('Ctrl Pts',(27.9679999999999,29.2876268600915,117.566475244267));
#1581=CARTESIAN_POINT('Ctrl Pts',(27.9679999999999,29.0919550231753,117.916759834582));
#1582=CARTESIAN_POINT('Ctrl Pts',(27.9679999999999,28.8448869678459,118.24106253546));
#1583=CARTESIAN_POINT('Ctrl Pts',(27.9679999999999,28.5978189125165,118.565365236337));
#1584=CARTESIAN_POINT('Ctrl Pts',(27.9679999999999,28.299354638774,118.863686047778));
#1585=CARTESIAN_POINT('Ctrl Pts',(27.9679999999999,27.9749131772821,119.110900068752));
#1586=CARTESIAN_POINT('Ctrl Pts',(27.9679999999999,27.6504717157901,119.358114089725));
#1587=CARTESIAN_POINT('Ctrl Pts',(27.9679999999999,27.3000530665487,119.554221320232));
#1588=CARTESIAN_POINT('Ctrl Pts',(27.9679999999999,26.941227714714,119.693252687926));
#1589=CARTESIAN_POINT('Ctrl Pts',(27.9679999999999,26.5824023628793,119.83228405562));
#1590=CARTESIAN_POINT('Ctrl Pts',(27.9679999999999,26.2151703084513,119.9142395605));
#1591=CARTESIAN_POINT('Ctrl Pts',(27.9679999999999,25.8465350345998,119.956168546595));
#1592=CARTESIAN_POINT('Ctrl Pts',(27.9679999999999,25.4778997607483,119.99809753269));
#1593=CARTESIAN_POINT('Ctrl Pts',(27.9679999999999,25.1078612674733,120.));
#1594=CARTESIAN_POINT('Ctrl Pts',(27.9679999999999,24.733862142046,120.));
#1595=CARTESIAN_POINT('Origin',(27.9680000000008,-140.266137857954,60.));
#1596=CARTESIAN_POINT('',(27.9679999999998,29.733862142046,5.));
#1597=CARTESIAN_POINT('',(27.9679999999998,29.733862142046,120.));
#1598=CARTESIAN_POINT('Ctrl Pts',(27.9679999999999,24.7338621420459,-3.99593552691258E-14));
#1599=CARTESIAN_POINT('Ctrl Pts',(27.9679999999999,25.1078612674733,-3.78921431269201E-14));
#1600=CARTESIAN_POINT('Ctrl Pts',(27.9679999999999,25.477927028363,0.00186350299460822));
#1601=CARTESIAN_POINT('Ctrl Pts',(27.9679999999999,25.8466335159364,0.043927346955452));
#1602=CARTESIAN_POINT('Ctrl Pts',(27.9679999999999,26.2153400035097,0.0859911909162958));
#1603=CARTESIAN_POINT('Ctrl Pts',(27.9679999999999,26.5826872177666,0.168255375843337));
#1604=CARTESIAN_POINT('Ctrl Pts',(27.9679999999999,26.9415045011337,0.30722498577861));
#1605=CARTESIAN_POINT('Ctrl Pts',(27.9679999999999,27.3003217845008,0.446194595713882));
#1606=CARTESIAN_POINT('Ctrl Pts',(27.9679999999999,27.6506091369782,0.641869630657385));
#1607=CARTESIAN_POINT('Ctrl Pts',(27.9679999999999,27.9749152251096,0.888940760099664));
#1608=CARTESIAN_POINT('Ctrl Pts',(27.9679999999999,28.299221313241,1.13601188954194));
#1609=CARTESIAN_POINT('Ctrl Pts',(27.9679999999999,28.5975461370265,1.434479113483));
#1610=CARTESIAN_POINT('Ctrl Pts',(27.9679999999999,28.8447612809438,1.75892312605772));
#1611=CARTESIAN_POINT('Ctrl Pts',(27.9679999999999,29.091976424861,2.08336713863244));
#1612=CARTESIAN_POINT('Ctrl Pts',(27.9679999999998,29.2880818889101,2.43378793984083));
#1613=CARTESIAN_POINT('Ctrl Pts',(27.9679999999998,29.4271138522492,2.79261590536674));
#1614=CARTESIAN_POINT('Ctrl Pts',(27.9679999999998,29.5661458155883,3.15144387089266));
#1615=CARTESIAN_POINT('Ctrl Pts',(27.9679999999998,29.6481042782174,3.51867900073611));
#1616=CARTESIAN_POINT('Ctrl Pts',(27.9679999999998,29.6900333598319,3.88731825165611));
#1617=CARTESIAN_POINT('Ctrl Pts',(27.9679999999998,29.7319624414463,4.2559575025761));
#1618=CARTESIAN_POINT('Ctrl Pts',(27.9679999999998,29.733862142046,4.62600087457264));
#1619=CARTESIAN_POINT('Ctrl Pts',(27.9679999999998,29.733862142046,5.));
#1620=CARTESIAN_POINT('',(27.9679999999999,16.733862142046,7.5));
#1621=CARTESIAN_POINT('',(27.9679999999999,22.733862142046,7.5));
#1622=CARTESIAN_POINT('Origin',(27.9679999999999,19.733862142046,7.5));
#1623=CARTESIAN_POINT('',(27.9679999999999,22.733862142046,112.5));
#1624=CARTESIAN_POINT('',(27.9679999999999,22.733862142046,86.25));
#1625=CARTESIAN_POINT('',(27.9679999999999,16.733862142046,112.5));
#1626=CARTESIAN_POINT('Origin',(27.9679999999999,19.733862142046,112.5));
#1627=CARTESIAN_POINT('',(27.9679999999999,16.733862142046,33.75));
#1628=CARTESIAN_POINT('Origin',(27.9679999999998,29.733862142046,0.));
#1629=CARTESIAN_POINT('',(27.9679999999998,29.733862142046,5.));
#1630=CARTESIAN_POINT('Ctrl Pts',(27.9679999999998,29.733862142046,5.));
#1631=CARTESIAN_POINT('Ctrl Pts',(28.3066666666665,29.733862142046,5.));
#1632=CARTESIAN_POINT('Ctrl Pts',(28.6453333333332,29.733862142046,5.));
#1633=CARTESIAN_POINT('Ctrl Pts',(28.9839999999998,29.733862142046,5.));
#1634=CARTESIAN_POINT('Ctrl Pts',(27.9679999999998,29.733862142046,4.62600087457264));
#1635=CARTESIAN_POINT('Ctrl Pts',(28.3066666666665,29.733862142046,4.62600087457264));
#1636=CARTESIAN_POINT('Ctrl Pts',(28.6453333333332,29.733862142046,4.62600087457264));
#1637=CARTESIAN_POINT('Ctrl Pts',(28.9839999999998,29.733862142046,4.62600087457264));
#1638=CARTESIAN_POINT('Ctrl Pts',(27.9679999999998,29.7300627408466,3.88591413057956));
#1639=CARTESIAN_POINT('Ctrl Pts',(28.3066666666665,29.7300627408466,3.88591413057956));
#1640=CARTESIAN_POINT('Ctrl Pts',(28.6453333333332,29.7300627408466,3.88591413057956));
#1641=CARTESIAN_POINT('Ctrl Pts',(28.9839999999998,29.7300627408466,3.88591413057956));
#1642=CARTESIAN_POINT('Ctrl Pts',(27.9679999999998,29.4841873529591,2.78420874104921));
#1643=CARTESIAN_POINT('Ctrl Pts',(28.3066666666665,29.4841873529591,2.78420874104921));
#1644=CARTESIAN_POINT('Ctrl Pts',(28.6453333333332,29.4841873529591,2.78420874104921));
#1645=CARTESIAN_POINT('Ctrl Pts',(28.9839999999998,29.4841873529591,2.78420874104921));
#1646=CARTESIAN_POINT('Ctrl Pts',(27.9679999999999,28.895870960812,1.73294633742405));
#1647=CARTESIAN_POINT('Ctrl Pts',(28.3066666666665,28.895870960812,1.73294633742405));
#1648=CARTESIAN_POINT('Ctrl Pts',(28.6453333333332,28.895870960812,1.73294633742405));
#1649=CARTESIAN_POINT('Ctrl Pts',(28.9839999999999,28.895870960812,1.73294633742405));
#1650=CARTESIAN_POINT('Ctrl Pts',(27.9679999999999,28.0008964894556,0.837544665600888));
#1651=CARTESIAN_POINT('Ctrl Pts',(28.3066666666665,28.0008964894556,0.837544665600888));
#1652=CARTESIAN_POINT('Ctrl Pts',(28.6453333333332,28.0008964894556,0.837544665600888));
#1653=CARTESIAN_POINT('Ctrl Pts',(28.9839999999999,28.0008964894556,0.837544665600888));
#1654=CARTESIAN_POINT('Ctrl Pts',(27.9679999999999,26.9500344320234,0.250519560770379));
#1655=CARTESIAN_POINT('Ctrl Pts',(28.3066666666665,26.9500344320234,0.250519560770379));
#1656=CARTESIAN_POINT('Ctrl Pts',(28.6453333333332,26.9500344320234,0.250519560770379));
#1657=CARTESIAN_POINT('Ctrl Pts',(28.9839999999999,26.9500344320234,0.250519560770379));
#1658=CARTESIAN_POINT('Ctrl Pts',(27.9679999999999,25.8479927892528,0.00372700598925429));
#1659=CARTESIAN_POINT('Ctrl Pts',(28.3066666666665,25.8479927892528,0.00372700598925426));
#1660=CARTESIAN_POINT('Ctrl Pts',(28.6453333333332,25.8479927892528,0.00372700598925433));
#1661=CARTESIAN_POINT('Ctrl Pts',(28.9839999999999,25.8479927892528,0.00372700598925429));
#1662=CARTESIAN_POINT('Ctrl Pts',(27.9679999999999,25.1078612674733,-3.7894840607434E-14));
#1663=CARTESIAN_POINT('Ctrl Pts',(28.3066666666665,25.1078612674733,-3.79324401605347E-14));
#1664=CARTESIAN_POINT('Ctrl Pts',(28.6453333333332,25.1078612674733,-3.78572410543334E-14));
#1665=CARTESIAN_POINT('Ctrl Pts',(28.9839999999999,25.1078612674733,-3.7894840607434E-14));
#1666=CARTESIAN_POINT('Ctrl Pts',(27.9679999999999,24.7338621420459,-3.99680288865056E-14));
#1667=CARTESIAN_POINT('Ctrl Pts',(28.3066666666665,24.7338621420459,-4.00056284396063E-14));
#1668=CARTESIAN_POINT('Ctrl Pts',(28.6453333333332,24.7338621420459,-3.9930429333405E-14));
#1669=CARTESIAN_POINT('Ctrl Pts',(28.9839999999999,24.7338621420459,-3.99680288865056E-14));
#1670=CARTESIAN_POINT('Ctrl Pts',(312.032,29.733862142046,115.));
#1671=CARTESIAN_POINT('Ctrl Pts',(311.693333333333,29.733862142046,115.));
#1672=CARTESIAN_POINT('Ctrl Pts',(311.354666666667,29.733862142046,115.));
#1673=CARTESIAN_POINT('Ctrl Pts',(311.016,29.733862142046,115.));
#1674=CARTESIAN_POINT('Ctrl Pts',(312.032,29.733862142046,115.373999125427));
#1675=CARTESIAN_POINT('Ctrl Pts',(311.693333333333,29.733862142046,115.373999125427));
#1676=CARTESIAN_POINT('Ctrl Pts',(311.354666666667,29.733862142046,115.373999125427));
#1677=CARTESIAN_POINT('Ctrl Pts',(311.016,29.733862142046,115.373999125427));
#1678=CARTESIAN_POINT('Ctrl Pts',(312.032,29.7300556071241,116.114070232444));
#1679=CARTESIAN_POINT('Ctrl Pts',(311.693333333333,29.7300556071241,116.114070232444));
#1680=CARTESIAN_POINT('Ctrl Pts',(311.354666666667,29.7300556071241,116.114070232444));
#1681=CARTESIAN_POINT('Ctrl Pts',(311.016,29.7300556071241,116.114070232444));
#1682=CARTESIAN_POINT('Ctrl Pts',(312.032,29.4841924809468,117.215762430562));
#1683=CARTESIAN_POINT('Ctrl Pts',(311.693333333334,29.4841924809468,117.215762430562));
#1684=CARTESIAN_POINT('Ctrl Pts',(311.354666666667,29.4841924809468,117.215762430562));
#1685=CARTESIAN_POINT('Ctrl Pts',(311.016,29.4841924809468,117.215762430562));
#1686=CARTESIAN_POINT('Ctrl Pts',(312.032,28.8958692980347,118.267014436738));
#1687=CARTESIAN_POINT('Ctrl Pts',(311.693333333333,28.8958692980347,118.267014436738));
#1688=CARTESIAN_POINT('Ctrl Pts',(311.354666666667,28.8958692980347,118.267014436738));
#1689=CARTESIAN_POINT('Ctrl Pts',(311.016,28.8958692980347,118.267014436738));
#1690=CARTESIAN_POINT('Ctrl Pts',(312.032,28.000911329934,119.162404475778));
#1691=CARTESIAN_POINT('Ctrl Pts',(311.693333333334,28.000911329934,119.162404475778));
#1692=CARTESIAN_POINT('Ctrl Pts',(311.354666666667,28.000911329934,119.162404475778));
#1693=CARTESIAN_POINT('Ctrl Pts',(311.016,28.000911329934,119.162404475778));
#1694=CARTESIAN_POINT('Ctrl Pts',(312.032,26.9500606332671,119.749416845872));
#1695=CARTESIAN_POINT('Ctrl Pts',(311.693333333333,26.9500606332671,119.749416845872));
#1696=CARTESIAN_POINT('Ctrl Pts',(311.354666666667,26.9500606332671,119.749416845872));
#1697=CARTESIAN_POINT('Ctrl Pts',(311.016,26.9500606332671,119.749416845872));
#1698=CARTESIAN_POINT('Ctrl Pts',(312.032,25.8480138095176,119.996221897199));
#1699=CARTESIAN_POINT('Ctrl Pts',(311.693333333333,25.8480138095176,119.996221897199));
#1700=CARTESIAN_POINT('Ctrl Pts',(311.354666666667,25.8480138095176,119.996221897199));
#1701=CARTESIAN_POINT('Ctrl Pts',(311.016,25.8480138095176,119.996221897199));
#1702=CARTESIAN_POINT('Ctrl Pts',(312.032,25.1078612674733,120.));
#1703=CARTESIAN_POINT('Ctrl Pts',(311.693333333333,25.1078612674733,120.));
#1704=CARTESIAN_POINT('Ctrl Pts',(311.354666666667,25.1078612674733,120.));
#1705=CARTESIAN_POINT('Ctrl Pts',(311.016,25.1078612674733,120.));
#1706=CARTESIAN_POINT('Ctrl Pts',(312.032,24.733862142046,120.));
#1707=CARTESIAN_POINT('Ctrl Pts',(311.693333333333,24.733862142046,120.));
#1708=CARTESIAN_POINT('Ctrl Pts',(311.354666666667,24.733862142046,120.));
#1709=CARTESIAN_POINT('Ctrl Pts',(311.016,24.733862142046,120.));
#1710=CARTESIAN_POINT('',(312.032,29.733862142046,115.));
#1711=CARTESIAN_POINT('Origin',(312.032,29.733862142046,120.));
#1712=CARTESIAN_POINT('',(312.032,29.733862142046,5.));
#1713=CARTESIAN_POINT('Ctrl Pts',(312.032,24.733862142046,0.));
#1714=CARTESIAN_POINT('Ctrl Pts',(311.693333333333,24.733862142046,0.));
#1715=CARTESIAN_POINT('Ctrl Pts',(311.354666666667,24.733862142046,0.));
#1716=CARTESIAN_POINT('Ctrl Pts',(311.016,24.733862142046,0.));
#1717=CARTESIAN_POINT('Ctrl Pts',(312.032,25.1078612674733,0.));
#1718=CARTESIAN_POINT('Ctrl Pts',(311.693333333333,25.1078612674733,0.));
#1719=CARTESIAN_POINT('Ctrl Pts',(311.354666666667,25.1078612674733,0.));
#1720=CARTESIAN_POINT('Ctrl Pts',(311.016,25.1078612674733,0.));
#1721=CARTESIAN_POINT('Ctrl Pts',(312.032,25.8479337061347,0.00380623542225359));
#1722=CARTESIAN_POINT('Ctrl Pts',(311.693333333333,25.8479337061347,0.00380623542225359));
#1723=CARTESIAN_POINT('Ctrl Pts',(311.354666666667,25.8479337061347,0.00380623542225359));
#1724=CARTESIAN_POINT('Ctrl Pts',(311.016,25.8479337061347,0.00380623542225359));
#1725=CARTESIAN_POINT('Ctrl Pts',(312.032,26.9496267442697,0.249670059951392));
#1726=CARTESIAN_POINT('Ctrl Pts',(311.693333333333,26.9496267442697,0.249670059951392));
#1727=CARTESIAN_POINT('Ctrl Pts',(311.354666666667,26.9496267442697,0.249670059951392));
#1728=CARTESIAN_POINT('Ctrl Pts',(311.016,26.9496267442697,0.249670059951392));
#1729=CARTESIAN_POINT('Ctrl Pts',(312.032,28.0008796423019,0.837992963656289));
#1730=CARTESIAN_POINT('Ctrl Pts',(311.693333333334,28.0008796423019,0.837992963656289));
#1731=CARTESIAN_POINT('Ctrl Pts',(311.354666666667,28.0008796423019,0.837992963656289));
#1732=CARTESIAN_POINT('Ctrl Pts',(311.016,28.0008796423019,0.837992963656289));
#1733=CARTESIAN_POINT('Ctrl Pts',(312.032,28.896270217472,1.73295184197324));
#1734=CARTESIAN_POINT('Ctrl Pts',(311.693333333334,28.896270217472,1.73295184197324));
#1735=CARTESIAN_POINT('Ctrl Pts',(311.354666666667,28.896270217472,1.73295184197324));
#1736=CARTESIAN_POINT('Ctrl Pts',(311.016,28.896270217472,1.73295184197324));
#1737=CARTESIAN_POINT('Ctrl Pts',(312.032,29.4832832037662,2.78380316510758));
#1738=CARTESIAN_POINT('Ctrl Pts',(311.693333333333,29.4832832037662,2.78380316510758));
#1739=CARTESIAN_POINT('Ctrl Pts',(311.354666666667,29.4832832037662,2.78380316510758));
#1740=CARTESIAN_POINT('Ctrl Pts',(311.016,29.4832832037662,2.78380316510758));
#1741=CARTESIAN_POINT('Ctrl Pts',(312.032,29.7300873878363,3.88584964466126));
#1742=CARTESIAN_POINT('Ctrl Pts',(311.693333333334,29.7300873878363,3.88584964466126));
#1743=CARTESIAN_POINT('Ctrl Pts',(311.354666666667,29.7300873878363,3.88584964466126));
#1744=CARTESIAN_POINT('Ctrl Pts',(311.016,29.7300873878363,3.88584964466126));
#1745=CARTESIAN_POINT('Ctrl Pts',(312.032,29.733862142046,4.62600087457264));
#1746=CARTESIAN_POINT('Ctrl Pts',(311.693333333333,29.733862142046,4.62600087457264));
#1747=CARTESIAN_POINT('Ctrl Pts',(311.354666666667,29.733862142046,4.62600087457264));
#1748=CARTESIAN_POINT('Ctrl Pts',(311.016,29.733862142046,4.62600087457264));
#1749=CARTESIAN_POINT('Ctrl Pts',(312.032,29.733862142046,5.));
#1750=CARTESIAN_POINT('Ctrl Pts',(311.693333333333,29.733862142046,5.));
#1751=CARTESIAN_POINT('Ctrl Pts',(311.354666666667,29.733862142046,5.));
#1752=CARTESIAN_POINT('Ctrl Pts',(311.016,29.733862142046,5.));
#1753=CARTESIAN_POINT('Origin',(311.016,19.733862142046,7.5));
#1754=CARTESIAN_POINT('',(311.016,22.733862142046,7.5));
#1755=CARTESIAN_POINT('',(311.016,16.733862142046,7.5));
#1756=CARTESIAN_POINT('Origin',(311.016,22.733862142046,112.5));
#1757=CARTESIAN_POINT('',(311.016,22.733862142046,112.5));
#1758=CARTESIAN_POINT('Origin',(311.016,19.733862142046,112.5));
#1759=CARTESIAN_POINT('',(311.016,16.733862142046,112.5));
#1760=CARTESIAN_POINT('Origin',(311.016,16.733862142046,7.5));
#1761=CARTESIAN_POINT('Origin',(28.9839999999999,19.733862142046,7.5));
#1762=CARTESIAN_POINT('',(28.9839999999999,16.733862142046,7.5));
#1763=CARTESIAN_POINT('',(28.9839999999999,22.733862142046,7.5));
#1764=CARTESIAN_POINT('Origin',(28.9839999999999,22.733862142046,112.5));
#1765=CARTESIAN_POINT('',(28.9839999999999,22.733862142046,112.5));
#1766=CARTESIAN_POINT('Origin',(28.9839999999999,19.733862142046,112.5));
#1767=CARTESIAN_POINT('',(28.9839999999999,16.733862142046,112.5));
#1768=CARTESIAN_POINT('Origin',(28.9839999999999,16.733862142046,7.5));
#1769=CARTESIAN_POINT('Origin',(305.5,1.016,18.));
#1770=CARTESIAN_POINT('',(305.5,1.016,102.));
#1771=CARTESIAN_POINT('',(305.5,1.016,102.));
#1772=CARTESIAN_POINT('',(305.5,1.016,18.));
#1773=CARTESIAN_POINT('',(305.5,1.016,39.));
#1774=CARTESIAN_POINT('',(305.5,1.016,18.));
#1775=CARTESIAN_POINT('Origin',(302.5,1.016,18.));
#1776=CARTESIAN_POINT('',(302.5,1.016,15.));
#1777=CARTESIAN_POINT('Origin',(302.5,1.016,18.));
#1778=CARTESIAN_POINT('',(302.5,1.016,15.));
#1779=CARTESIAN_POINT('Origin',(37.5,1.016,15.));
#1780=CARTESIAN_POINT('',(37.5,1.016,15.));
#1781=CARTESIAN_POINT('',(103.75,1.016,15.));
#1782=CARTESIAN_POINT('',(37.5,1.016,15.));
#1783=CARTESIAN_POINT('Origin',(37.5,1.016,18.));
#1784=CARTESIAN_POINT('',(34.5,1.016,18.));
#1785=CARTESIAN_POINT('Origin',(37.5,1.016,18.));
#1786=CARTESIAN_POINT('',(34.5,1.016,18.));
#1787=CARTESIAN_POINT('Origin',(34.5,1.016,102.));
#1788=CARTESIAN_POINT('',(34.5,1.016,102.));
#1789=CARTESIAN_POINT('',(34.5,1.016,81.));
#1790=CARTESIAN_POINT('',(34.5,1.016,102.));
#1791=CARTESIAN_POINT('Origin',(37.5,1.016,102.));
#1792=CARTESIAN_POINT('',(37.5,1.016,105.));
#1793=CARTESIAN_POINT('Origin',(37.5,1.016,102.));
#1794=CARTESIAN_POINT('',(37.5,1.016,105.));
#1795=CARTESIAN_POINT('Origin',(302.5,1.016,105.));
#1796=CARTESIAN_POINT('',(302.5,1.016,105.));
#1797=CARTESIAN_POINT('',(236.25,1.016,105.));
#1798=CARTESIAN_POINT('',(302.5,1.016,105.));
#1799=CARTESIAN_POINT('Origin',(302.5,1.016,102.));
#1800=CARTESIAN_POINT('Origin',(302.5,1.016,102.));
#1801=CARTESIAN_POINT('Origin',(37.5,0.,112.5));
#1802=CARTESIAN_POINT('',(37.5,1.016,109.5));
#1803=CARTESIAN_POINT('',(37.5,0.,109.5));
#1804=CARTESIAN_POINT('',(37.5,1.016,115.5));
#1805=CARTESIAN_POINT('Origin',(37.5,1.016,112.5));
#1806=CARTESIAN_POINT('',(37.5,0.,115.5));
#1807=CARTESIAN_POINT('Origin',(302.499999786692,0.,115.5));
#1808=CARTESIAN_POINT('',(302.499999786692,1.016,115.5));
#1809=CARTESIAN_POINT('',(34.5,1.016,115.5));
#1810=CARTESIAN_POINT('',(302.499999786692,0.,115.5));
#1811=CARTESIAN_POINT('Origin',(302.5,0.,112.5));
#1812=CARTESIAN_POINT('',(302.5,1.016,109.5));
#1813=CARTESIAN_POINT('Origin',(302.5,1.016,112.5));
#1814=CARTESIAN_POINT('',(302.5,0.,109.5));
#1815=CARTESIAN_POINT('Origin',(37.5,0.,109.5));
#1816=CARTESIAN_POINT('',(305.5,1.016,109.5));
#1817=CARTESIAN_POINT('Origin',(302.500000114043,0.,10.5));
#1818=CARTESIAN_POINT('',(37.5,1.016,10.5));
#1819=CARTESIAN_POINT('',(37.5,0.,10.5));
#1820=CARTESIAN_POINT('',(302.500000114043,1.016,10.5));
#1821=CARTESIAN_POINT('',(305.5,1.016,10.5));
#1822=CARTESIAN_POINT('',(302.500000114043,0.,10.5));
#1823=CARTESIAN_POINT('Origin',(302.5,0.,7.5));
#1824=CARTESIAN_POINT('',(302.499999885957,1.016,4.5));
#1825=CARTESIAN_POINT('Origin',(302.5,1.016,7.5));
#1826=CARTESIAN_POINT('',(302.499999885957,0.,4.5));
#1827=CARTESIAN_POINT('Origin',(37.5,0.,4.5));
#1828=CARTESIAN_POINT('',(37.5,1.016,4.5));
#1829=CARTESIAN_POINT('',(34.5,1.016,4.5));
#1830=CARTESIAN_POINT('',(37.5,0.,4.5));
#1831=CARTESIAN_POINT('Origin',(37.5,0.,7.5));
#1832=CARTESIAN_POINT('Origin',(37.5,1.016,7.5));
#1833=CARTESIAN_POINT('Origin',(28.984,2.03199999999999,0.));
#1834=CARTESIAN_POINT('Origin',(311.016,2.03199999999999,120.));
#1835=CARTESIAN_POINT('Origin',(170.,1.016,60.));
#1836=UNCERTAINTY_MEASURE_WITH_UNIT(LENGTH_MEASURE(0.01),#1840,
'DISTANCE_ACCURACY_VALUE',
'Maximum model space distance between geometric entities at asserted c
onnectivities');
#1837=UNCERTAINTY_MEASURE_WITH_UNIT(LENGTH_MEASURE(0.01),#1840,
'DISTANCE_ACCURACY_VALUE',
'Maximum model space distance between geometric entities at asserted c
onnectivities');
#1838=(
GEOMETRIC_REPRESENTATION_CONTEXT(3)
GLOBAL_UNCERTAINTY_ASSIGNED_CONTEXT((#1836))
GLOBAL_UNIT_ASSIGNED_CONTEXT((#1840,#1842,#1843))
REPRESENTATION_CONTEXT('','3D')
);
#1839=(
GEOMETRIC_REPRESENTATION_CONTEXT(3)
GLOBAL_UNCERTAINTY_ASSIGNED_CONTEXT((#1837))
GLOBAL_UNIT_ASSIGNED_CONTEXT((#1840,#1842,#1843))
REPRESENTATION_CONTEXT('','3D')
);
#1840=(
LENGTH_UNIT()
NAMED_UNIT(*)
SI_UNIT(.MILLI.,.METRE.)
);
#1841=(
LENGTH_UNIT()
NAMED_UNIT(*)
SI_UNIT($,.METRE.)
);
#1842=(
NAMED_UNIT(*)
PLANE_ANGLE_UNIT()
SI_UNIT($,.RADIAN.)
);
#1843=(
NAMED_UNIT(*)
SI_UNIT($,.STERADIAN.)
SOLID_ANGLE_UNIT()
);
#1844=SHAPE_DEFINITION_REPRESENTATION(#1845,#1846);
#1845=PRODUCT_DEFINITION_SHAPE('',$,#1848);
#1846=SHAPE_REPRESENTATION('',(#928),#1838);
#1847=PRODUCT_DEFINITION_CONTEXT('part definition',#1852,'design');
#1848=PRODUCT_DEFINITION('AIO plate sheet metal',
'AIO plate sheet metal v6',#1849,#1847);
#1849=PRODUCT_DEFINITION_FORMATION('',$,#1854);
#1850=PRODUCT_RELATED_PRODUCT_CATEGORY('AIO plate sheet metal v6',
'AIO plate sheet metal v6',(#1854));
#1851=APPLICATION_PROTOCOL_DEFINITION('international standard',
'automotive_design',2009,#1852);
#1852=APPLICATION_CONTEXT(
'Core Data for Automotive Mechanical Design Process');
#1853=PRODUCT_CONTEXT('part definition',#1852,'mechanical');
#1854=PRODUCT('AIO plate sheet metal','AIO plate sheet metal v6',$,(#1853));
#1855=PRESENTATION_STYLE_ASSIGNMENT((#1856));
#1856=SURFACE_STYLE_USAGE(.BOTH.,#1857);
#1857=SURFACE_SIDE_STYLE('',(#1858));
#1858=SURFACE_STYLE_FILL_AREA(#1859);
#1859=FILL_AREA_STYLE('Steel - Satin',(#1860));
#1860=FILL_AREA_STYLE_COLOUR('Steel - Satin',#1861);
#1861=COLOUR_RGB('Steel - Satin',0.627450980392157,0.627450980392157,0.627450980392157);
ENDSEC;
END-ISO-10303-21;
